<svg width="595" height="516" viewBox="0 0 595 516" fill="none" xmlns="http://www.w3.org/2000/svg">
<path d="M595 0H0V516H595V0Z" fill="black"/>
<path d="M24.2797 124.45C46.5697 129.93 27.5997 149.44 19.3797 130.24C14.5597 130.59 11.2297 136.78 13.5597 140.9C13.9697 141.63 14.4497 141.45 15.0497 141.3C24.0597 139.26 34.0797 138.55 42.6797 142.51C49.4797 145.55 47.2597 154.77 40.4597 155.28C30.2197 156.94 20.0597 152.91 11.8997 147.28C8.20969 148.13 4.99969 152.2 4.95969 155.99C6.67969 170.46 38.9797 168.76 45.2997 158.16C46.5797 159 47.7597 159.78 49.2297 160.74C38.2497 179.71 -17.2803 170.79 5.86969 145.41C6.92969 144.19 10.0097 144.02 9.05969 141.92C6.06969 134.93 10.9697 127.37 18.0097 125.62C18.9197 125.33 19.3497 124.92 19.6197 123.99C25.9397 107.2 49.8897 115.94 49.4797 132.47C49.6597 133.46 49.3197 133.9 48.2097 133.9C45.1297 133.9 45.1297 133.95 44.7097 130.92C43.9597 120.56 29.6797 114.83 24.2697 124.44L24.2797 124.45ZM18.1097 145.29C18.0897 145.41 18.0797 145.53 18.0597 145.65C46.5897 160.82 52.8797 139.69 18.1097 145.29ZM24.3297 129.64C24.6197 132.19 27.9397 134.39 30.0597 133.44C29.6597 131.31 26.6097 129.29 24.3297 129.64Z" fill="white"/>
<path d="M83.7597 52.68C85.2797 54.11 88.8597 51.78 88.6697 54.71C89.1097 58.12 89.5997 57.74 85.9397 57.76C82.7697 57.9 78.9397 56.17 79.0997 52.68C79.5797 44.09 90.8497 48.38 96.1097 45.69L96.1497 45.09C84.8297 41.63 61.6697 52.09 58.5197 35.19C58.5697 27.44 67.8897 25.24 74.0797 24.52C85.8797 22.7 98.8397 24.6 109.83 19.35C115.7 15.18 109.57 8.71001 104.26 8.22001C85.4297 4.66001 66.1397 9.22001 47.6097 12.67C46.3897 12.9233 45.6497 12.42 45.3897 11.16C44.8397 8.52001 44.8497 8.55001 47.4697 7.99001C67.8697 5.01001 94.7697 -3.74999 113.46 7.71001C129.51 32.97 80.7997 25.22 68.3997 30.45C58.2997 33.46 64.5197 41.02 72.2697 40.35C80.3397 40.65 88.5797 38.68 96.5497 40.21C101.94 41.56 102.18 48.96 96.7797 50.36C92.5797 51.81 87.8397 50.83 83.7297 52.18C83.7497 52.34 83.7597 52.49 83.7797 52.65L83.7597 52.68Z" fill="white"/>
<path d="M116.29 167.25C115.12 168.18 114.02 169.06 112.81 170.03C110.68 168.57 107.89 161.85 105.5 162.76C94.0697 170.9 78.8597 169.08 69.5897 158.69C65.4897 162.56 61.4397 166.39 57.2697 170.33C56.4497 169.04 53.1597 167.38 55.0397 166.09C58.7597 162.55 62.4697 159 66.2297 155.51C66.9497 154.84 67.0997 154.28 66.7897 153.33C64.0697 145.14 69.1897 137.88 77.8197 137.73C80.1197 137.33 82.8497 139.1 84.8697 137.77C95.9797 125.84 117.4 129.1 114.5 148.15C111.65 161.15 105.81 154.93 116.28 167.25H116.29ZM89.8997 163.26C92.3297 163.4 105.82 160.7 102.16 157.21C98.1097 153.28 89.9697 143.32 84.2097 144.59C82.6197 147.21 71.5397 154.35 73.9597 156.63C78.2297 161.3 83.7097 162.98 89.8997 163.26ZM106.43 155.06C117.82 140.49 101.42 127.4 89.1997 140.58C96.0197 144.07 101.36 149.35 106.43 155.06ZM70.9197 151C73.9897 148.04 76.7797 145.35 79.8297 142.41C74.2397 141.52 69.5497 145.12 70.9197 151Z" fill="white"/>
<path d="M97.7497 69.05C104.79 72.23 111.19 76.13 117.11 81.13C116.14 82.31 115.23 83.42 114.27 84.59C110.81 82.24 96.1297 71.12 92.9697 73.53C80.2497 85.62 61.6397 91.67 44.5197 86.53C26.0997 80.25 37.2797 62.62 52.3397 61.91C97.2397 56.17 83.7697 86.26 112.97 40.78C114.14 41.86 116.93 42.27 116.21 44.13C110.48 52.79 104.64 61.26 97.7497 69.05ZM89.2997 70.92C76.0997 66.47 60.9997 63.43 47.4197 67.95C41.8597 69.5 35.5897 76.34 42.5197 80.54C58.5197 88.1 76.3797 81.73 89.2997 70.92Z" fill="white"/>
<path d="M40.4497 37.75C39.9797 44.17 41.1997 51.18 36.1697 55.99C30.1397 62.28 19.0897 58.03 18.2297 49.55C16.6597 40.55 22.7397 32.95 32.1097 32.1C33.4197 31.68 36.0597 32.83 35.8897 30.65C36.9197 18.37 29.8097 -1.70999 15.0997 10.25C7.88969 17.46 6.70969 28.53 7.47969 38.24C7.62969 39.88 7.57969 39.89 5.90969 40.05C2.93969 40.33 2.96969 40.33 2.79969 37.3C2.16969 25.78 4.29969 12.24 14.2797 5.02001C22.3297 -0.389986 32.2697 2.14001 36.7597 10.72C40.1697 17.23 40.2597 24.63 40.4497 31.79C40.4697 32.52 40.7197 32.89 41.4397 33.15C51.2497 36.44 55.2797 45.67 54.5197 55.59C54.5797 56.42 54.0697 56.65 53.3197 56.59C50.0097 56.74 50.0397 56.73 49.9097 53.44C50.1897 46.66 47.1897 40 40.4397 37.75H40.4497ZM35.7997 42.25C35.3297 40.07 36.9697 36.84 34.6397 36.56C27.8697 36.36 21.8997 40.87 22.6197 47.83C22.8997 51.69 25.4397 54.37 28.8197 54.37C34.8197 54.76 35.6897 46.59 35.8097 42.25H35.7997Z" fill="white"/>
<path d="M26.7497 103.09C16.1397 116.11 -4.33031 104.75 5.57969 89.41C9.84969 81.64 23.7797 82.78 24.7397 73.33C24.2597 65.4 14.8397 66.32 11.3797 71.78C7.65969 75.68 9.52969 81.08 2.96969 77.5C10.9197 51.94 40.1697 64.54 25.1797 82.06C20.8597 85.48 15.1097 86.63 10.9497 90.34C4.90969 94.74 7.92969 105.69 16.0397 104.22C19.2197 103.64 25.4597 100.65 21.9297 97.02C23.1897 96.23 24.3897 95.47 25.6997 94.64C26.1397 95.18 26.5597 95.68 27.0497 96.27C34.4897 90.37 48.6297 90.12 52.2597 100.33C55.0597 116.2 32.1497 113.37 26.7497 103.09ZM29.8997 100.03C32.9197 103.27 35.9997 106.16 40.3397 106.96C44.7797 108.01 50.9397 104.37 46.7397 99.68C42.1397 95.29 34.7597 96.16 29.8897 100.03H29.8997Z" fill="white"/>
<path d="M97.8297 118.8C95.8197 119.33 91.5197 117.44 91.1297 120.26C90.8797 127.61 83.2597 136.91 75.7097 132.44C67.2997 126.67 75.3797 116.15 83.5597 115.44C86.8497 114.63 86.8897 114.64 86.6997 111.2C87.5597 102.33 80.8997 87.33 71.0597 97.04C65.7997 103.38 64.0097 112.09 64.4297 120.17C64.6297 121.42 63.4997 121.3 62.6497 121.46C59.8997 121.91 59.7997 121.91 59.7597 119.18C59.8097 108.58 62.4897 95.04 73.0597 90.14C84.1397 86.12 91.3097 98.27 91.0997 108.06C91.7497 109.83 90.2397 113.77 92.4797 114.21C99.0397 113.68 111.3 116.75 111.89 107.18C111.98 105.92 112.44 105.65 113.58 105.69C117.23 105.81 116.87 105.36 116.26 109.07C115.37 117.88 105.49 119.18 97.8297 118.95V118.8ZM86.5297 119.69C82.5297 119.8 74.2797 123.2 77.4997 127.99C82.0897 131.58 86.4497 123.94 86.5297 119.69Z" fill="white"/>
<path d="M110.66 95.75C110.58 91.05 118.05 91.05 117.94 95.76C118.08 100.59 110.51 100.52 110.66 95.75Z" fill="white"/>
<path d="M168.34 41.98C168.76 38.95 168.76 38.99 171.84 39C172.95 39 173.29 39.44 173.11 40.43C173.52 56.96 149.57 65.71 143.25 48.91C142.98 47.98 142.54 47.57 141.64 47.28C134.6 45.53 129.7 37.98 132.69 30.98C133.64 28.88 130.56 28.71 129.5 27.49C106.35 2.12001 161.88 -6.79999 172.86 12.16C171.39 13.13 170.21 13.9 168.93 14.74C162.61 4.14001 130.3 2.44001 128.59 16.91C128.63 20.69 131.85 24.76 135.53 25.62C143.68 19.99 153.84 15.96 164.09 17.62C170.89 18.14 173.11 27.35 166.31 30.39C157.71 34.34 147.69 33.64 138.68 31.6C138.09 31.45 137.6 31.27 137.19 32C134.85 36.12 138.18 42.31 143.01 42.66C151.23 23.45 170.2 42.97 147.91 48.45C153.31 58.06 167.6 52.34 168.35 41.97L168.34 41.98ZM141.69 27.26C141.71 27.38 141.72 27.5 141.74 27.62C176.51 33.22 170.22 12.09 141.69 27.26ZM153.69 39.47C151.57 38.52 148.25 40.72 147.96 43.27C150.24 43.62 153.29 41.6 153.69 39.47Z" fill="white"/>
<path d="M207.39 120.22C208.91 118.79 212.49 121.12 212.3 118.19C212.74 114.78 213.23 115.16 209.57 115.14C206.4 115 202.57 116.73 202.73 120.22C203.21 128.81 214.48 124.52 219.74 127.21L219.78 127.81C208.46 131.27 185.3 120.81 182.15 137.71C182.2 145.46 191.52 147.66 197.71 148.38C209.51 150.2 222.47 148.3 233.46 153.55C239.33 157.72 233.2 164.19 227.89 164.68C209.06 168.24 189.77 163.68 171.24 160.23C170.02 159.977 169.28 160.48 169.02 161.74C168.47 164.38 168.48 164.35 171.1 164.91C191.5 167.89 218.4 176.65 237.09 165.19C253.14 139.93 204.43 147.68 192.03 142.45C181.93 139.44 188.15 131.88 195.9 132.55C203.97 132.25 212.21 134.22 220.18 132.69C225.57 131.34 225.81 123.94 220.41 122.54C216.21 121.09 211.47 122.07 207.36 120.72C207.38 120.56 207.39 120.41 207.41 120.25L207.39 120.22Z" fill="white"/>
<path d="M238.13 24.75C241.03 43.8 219.6 47.06 208.5 35.13C206.48 33.8 203.74 35.57 201.45 35.17C192.82 35.01 187.7 27.76 190.42 19.57C190.74 18.62 190.59 18.06 189.86 17.39C186.1 13.9 182.39 10.35 178.67 6.81001C176.79 5.53001 180.08 3.86001 180.9 2.57001C185.07 6.51001 189.12 10.33 193.22 14.21C202.49 3.81001 217.7 1.99002 229.13 10.14C231.52 11.05 234.31 4.33001 236.44 2.87001C237.65 3.84001 238.76 4.72001 239.92 5.65001C229.45 17.97 235.29 11.75 238.14 24.75H238.13ZM197.58 16.27C195.16 18.55 206.24 25.69 207.83 28.31C213.6 29.58 221.73 19.62 225.78 15.69C229.44 12.2 215.95 9.50001 213.52 9.64001C207.33 9.92001 201.85 11.6 197.58 16.27ZM212.83 32.32C225.04 45.5 241.44 32.41 230.06 17.84C224.99 23.55 219.65 28.83 212.83 32.32ZM203.46 30.48C200.41 27.54 197.62 24.85 194.55 21.89C193.18 27.77 197.87 31.37 203.46 30.48Z" fill="white"/>
<path d="M239.84 128.77C240.56 130.64 237.77 131.04 236.6 132.12C207.4 86.64 220.86 116.73 175.97 110.99C160.91 110.29 149.73 92.65 168.15 86.37C185.27 81.23 203.88 87.28 216.6 99.37C219.76 101.78 234.44 90.66 237.9 88.31C238.85 89.47 239.77 90.59 240.74 91.77C234.81 96.77 228.41 100.67 221.38 103.85C228.28 111.64 234.11 120.11 239.84 128.77ZM166.14 92.36C159.21 96.56 165.49 103.41 171.04 104.95C184.62 109.47 199.72 106.43 212.92 101.98C200 91.17 182.13 84.8 166.14 92.36Z" fill="white"/>
<path d="M173.55 119.46C173.68 116.16 173.65 116.16 176.96 116.31C177.71 116.25 178.22 116.48 178.16 117.31C178.92 127.23 174.89 136.47 165.08 139.75C164.36 140.01 164.11 140.38 164.09 141.11C163.9 148.27 163.8 155.67 160.4 162.18C155.91 170.77 145.96 173.29 137.92 167.88C127.94 160.66 125.81 147.12 126.44 135.6C126.61 132.56 126.58 132.56 129.55 132.85C131.21 133.01 131.27 133.01 131.12 134.66C130.35 144.36 131.53 155.43 138.74 162.65C153.44 174.61 160.56 154.53 159.53 142.25C159.7 140.07 157.07 141.22 155.75 140.8C146.38 139.94 140.3 132.34 141.87 123.35C142.73 114.87 153.78 110.62 159.81 116.91C164.84 121.72 163.63 128.73 164.09 135.15C170.84 132.9 173.84 126.24 173.56 119.46H173.55ZM152.45 118.53C149.07 118.53 146.53 121.22 146.25 125.07C145.53 132.03 151.51 136.54 158.27 136.34C160.6 136.06 158.96 132.83 159.43 130.65C159.31 126.31 158.44 118.14 152.44 118.53H152.45Z" fill="white"/>
<path d="M175.89 72.58C172.27 82.79 158.12 82.54 150.68 76.64C150.19 77.23 149.77 77.73 149.33 78.27C148.02 77.44 146.82 76.68 145.56 75.89C149.09 72.26 142.85 69.27 139.67 68.69C131.56 67.22 128.55 78.17 134.58 82.57C138.73 86.27 144.49 87.42 148.81 90.85C163.81 108.37 134.56 120.97 126.6 95.41C133.17 91.82 131.3 97.23 135.01 101.13C138.46 106.6 147.89 107.52 148.37 99.58C147.41 90.13 133.48 91.28 129.21 83.5C119.29 68.16 139.76 56.8 150.38 69.82C155.78 59.55 178.69 56.71 175.89 72.58ZM170.37 73.23C174.56 68.54 168.41 64.89 163.97 65.95C159.63 66.75 156.55 69.63 153.53 72.88C158.4 76.76 165.78 77.63 170.38 73.23H170.37Z" fill="white"/>
<path d="M221.46 53.95C229.12 53.72 239 55.03 239.89 63.83C240.5 67.54 240.86 67.09 237.21 67.21C236.06 67.25 235.6 66.98 235.52 65.72C234.93 56.16 222.67 59.22 216.11 58.69C213.87 59.14 215.38 63.08 214.73 64.84C214.93 74.63 207.77 86.78 196.69 82.76C186.12 77.86 183.44 64.32 183.39 53.72C183.43 50.99 183.54 50.99 186.28 51.44C187.13 51.6 188.26 51.48 188.06 52.73C187.63 60.8 189.43 69.52 194.69 75.86C204.53 85.57 211.19 70.57 210.33 61.7C210.51 58.25 210.48 58.27 207.19 57.46C199.01 56.75 190.93 46.23 199.34 40.46C206.89 35.99 214.51 45.29 214.76 52.64C215.16 55.46 219.46 53.57 221.46 54.1V53.95ZM201.13 44.91C197.91 49.71 206.16 53.11 210.16 53.21C210.08 48.95 205.72 41.31 201.13 44.91Z" fill="white"/>
<path d="M234.28 77.15C234.2 81.85 241.67 81.85 241.56 77.14C241.7 72.31 234.13 72.38 234.28 77.15Z" fill="white"/>
<path d="M265.56 124.45C287.85 129.93 268.88 149.44 260.66 130.24C255.84 130.59 252.51 136.78 254.84 140.9C255.25 141.63 255.73 141.45 256.33 141.3C265.34 139.26 275.36 138.55 283.96 142.51C290.76 145.55 288.54 154.77 281.74 155.28C271.5 156.94 261.34 152.91 253.18 147.28C249.49 148.13 246.28 152.2 246.24 155.99C247.96 170.46 280.26 168.76 286.58 158.16C287.86 159 289.04 159.78 290.51 160.74C279.53 179.71 224 170.79 247.15 145.41C248.21 144.19 251.29 144.02 250.34 141.92C247.35 134.93 252.25 127.37 259.29 125.62C260.2 125.33 260.63 124.92 260.9 123.99C267.22 107.2 291.17 115.94 290.76 132.47C290.94 133.46 290.6 133.9 289.49 133.9C286.41 133.9 286.41 133.95 285.99 130.92C285.24 120.56 270.96 114.83 265.55 124.44L265.56 124.45ZM259.39 145.29C259.37 145.41 259.36 145.53 259.34 145.65C287.87 160.82 294.16 139.69 259.39 145.29ZM265.61 129.64C265.9 132.19 269.22 134.39 271.34 133.44C270.94 131.31 267.89 129.29 265.61 129.64Z" fill="white"/>
<path d="M325.05 52.68C326.57 54.11 330.15 51.78 329.96 54.71C330.4 58.12 330.89 57.74 327.23 57.76C324.06 57.9 320.23 56.17 320.39 52.68C320.87 44.09 332.14 48.38 337.4 45.69L337.44 45.09C326.12 41.63 302.96 52.09 299.81 35.19C299.86 27.44 309.18 25.24 315.37 24.52C327.17 22.7 340.13 24.6 351.12 19.35C356.99 15.18 350.86 8.71001 345.55 8.22001C326.72 4.66001 307.43 9.22001 288.9 12.67C287.68 12.9233 286.94 12.42 286.68 11.16C286.13 8.52001 286.14 8.55001 288.76 7.99001C309.16 5.01001 336.06 -3.74999 354.75 7.71001C370.8 32.97 322.09 25.22 309.69 30.45C299.59 33.46 305.81 41.02 313.56 40.35C321.63 40.65 329.87 38.68 337.84 40.21C343.23 41.56 343.47 48.96 338.07 50.36C333.87 51.81 329.13 50.83 325.02 52.18C325.04 52.34 325.05 52.49 325.07 52.65L325.05 52.68Z" fill="white"/>
<path d="M357.57 167.25C356.4 168.18 355.3 169.06 354.09 170.03C351.96 168.57 349.17 161.85 346.78 162.76C335.35 170.9 320.14 169.08 310.87 158.69C306.77 162.56 302.72 166.39 298.55 170.33C297.73 169.04 294.44 167.38 296.32 166.09C300.04 162.55 303.75 159 307.51 155.51C308.23 154.84 308.38 154.28 308.07 153.33C305.35 145.14 310.47 137.88 319.1 137.73C321.4 137.33 324.13 139.1 326.15 137.77C337.26 125.84 358.68 129.1 355.78 148.15C352.93 161.15 347.09 154.93 357.56 167.25H357.57ZM331.18 163.26C333.61 163.4 347.1 160.7 343.44 157.21C339.39 153.28 331.25 143.32 325.49 144.59C323.9 147.21 312.82 154.35 315.24 156.63C319.51 161.3 324.99 162.98 331.18 163.26ZM347.71 155.06C359.1 140.49 342.7 127.4 330.48 140.58C337.3 144.07 342.64 149.35 347.71 155.06ZM312.2 151C315.27 148.04 318.06 145.35 321.11 142.41C315.52 141.52 310.83 145.12 312.2 151Z" fill="white"/>
<path d="M339.04 69.05C346.08 72.23 352.48 76.13 358.4 81.13C357.43 82.31 356.52 83.42 355.56 84.59C352.1 82.24 337.42 71.12 334.26 73.53C321.54 85.62 302.93 91.67 285.81 86.53C267.39 80.25 278.57 62.62 293.63 61.91C338.53 56.17 325.06 86.26 354.26 40.78C355.43 41.86 358.22 42.27 357.5 44.13C351.77 52.79 345.93 61.26 339.04 69.05ZM330.59 70.92C317.39 66.47 302.29 63.43 288.71 67.95C283.15 69.5 276.88 76.34 283.81 80.54C299.81 88.1 317.67 81.73 330.59 70.92Z" fill="white"/>
<path d="M281.74 37.75C281.27 44.17 282.49 51.18 277.46 55.99C271.43 62.28 260.38 58.03 259.52 49.55C257.95 40.55 264.03 32.95 273.4 32.1C274.71 31.68 277.35 32.83 277.18 30.65C278.21 18.37 271.1 -1.70999 256.39 10.25C249.18 17.46 248 28.53 248.77 38.24C248.92 39.88 248.87 39.89 247.2 40.05C244.23 40.33 244.26 40.33 244.09 37.3C243.46 25.78 245.59 12.24 255.57 5.02001C263.62 -0.389986 273.56 2.14001 278.05 10.72C281.46 17.23 281.55 24.63 281.74 31.79C281.76 32.52 282.01 32.89 282.73 33.15C292.54 36.44 296.57 45.67 295.81 55.59C295.87 56.42 295.36 56.65 294.61 56.59C291.3 56.74 291.33 56.73 291.2 53.44C291.48 46.66 288.48 40 281.73 37.75H281.74ZM277.09 42.25C276.62 40.07 278.26 36.84 275.93 36.56C269.16 36.36 263.19 40.87 263.91 47.83C264.19 51.69 266.73 54.37 270.11 54.37C276.11 54.76 276.98 46.59 277.1 42.25H277.09Z" fill="white"/>
<path d="M268.03 103.09C257.42 116.11 236.95 104.75 246.86 89.41C251.13 81.64 265.06 82.78 266.02 73.33C265.54 65.4 256.12 66.32 252.66 71.78C248.94 75.68 250.81 81.08 244.25 77.5C252.2 51.94 281.45 64.54 266.46 82.06C262.14 85.48 256.39 86.63 252.23 90.34C246.19 94.74 249.21 105.69 257.32 104.22C260.5 103.64 266.74 100.65 263.21 97.02C264.47 96.23 265.67 95.47 266.98 94.64C267.42 95.18 267.84 95.68 268.33 96.27C275.77 90.37 289.91 90.12 293.54 100.33C296.34 116.2 273.43 113.37 268.03 103.09ZM271.18 100.03C274.2 103.27 277.28 106.16 281.62 106.96C286.06 108.01 292.22 104.37 288.02 99.68C283.42 95.29 276.04 96.16 271.17 100.03H271.18Z" fill="white"/>
<path d="M339.11 118.8C337.1 119.33 332.8 117.44 332.41 120.26C332.16 127.61 324.54 136.91 316.99 132.44C308.58 126.67 316.66 116.15 324.84 115.44C328.13 114.63 328.17 114.64 327.98 111.2C328.84 102.33 322.18 87.33 312.34 97.04C307.08 103.38 305.29 112.09 305.71 120.17C305.91 121.42 304.78 121.3 303.93 121.46C301.18 121.91 301.08 121.91 301.04 119.18C301.09 108.58 303.77 95.04 314.34 90.14C325.42 86.12 332.59 98.27 332.38 108.06C333.03 109.83 331.52 113.77 333.76 114.21C340.32 113.68 352.58 116.75 353.17 107.18C353.26 105.92 353.72 105.65 354.86 105.69C358.51 105.81 358.15 105.36 357.54 109.07C356.65 117.88 346.77 119.18 339.11 118.95V118.8ZM327.81 119.69C323.81 119.8 315.56 123.2 318.78 127.99C323.37 131.58 327.73 123.94 327.81 119.69Z" fill="white"/>
<path d="M351.94 95.75C351.86 91.05 359.33 91.05 359.22 95.76C359.36 100.59 351.79 100.52 351.94 95.75Z" fill="white"/>
<path d="M500.85 124.45C523.14 129.93 504.17 149.44 495.95 130.24C491.13 130.59 487.8 136.78 490.13 140.9C490.54 141.63 491.02 141.45 491.62 141.3C500.63 139.26 510.65 138.55 519.25 142.51C526.05 145.55 523.83 154.77 517.03 155.28C506.79 156.94 496.63 152.91 488.47 147.28C484.78 148.13 481.57 152.2 481.53 155.99C483.25 170.46 515.55 168.76 521.87 158.16C523.15 159 524.33 159.78 525.8 160.74C514.82 179.71 459.29 170.79 482.44 145.41C483.5 144.19 486.58 144.02 485.63 141.92C482.64 134.93 487.54 127.37 494.58 125.62C495.49 125.33 495.92 124.92 496.19 123.99C502.51 107.2 526.46 115.94 526.05 132.47C526.23 133.46 525.89 133.9 524.78 133.9C521.7 133.9 521.7 133.95 521.28 130.92C520.53 120.56 506.25 114.83 500.84 124.44L500.85 124.45ZM494.68 145.29C494.66 145.41 494.65 145.53 494.63 145.65C523.16 160.82 529.45 139.69 494.68 145.29ZM500.9 129.64C501.19 132.19 504.51 134.39 506.63 133.44C506.23 131.31 503.18 129.29 500.9 129.64Z" fill="white"/>
<path d="M560.33 52.68C561.85 54.11 565.43 51.78 565.24 54.71C565.68 58.12 566.17 57.74 562.51 57.76C559.34 57.9 555.51 56.17 555.67 52.68C556.15 44.09 567.42 48.38 572.68 45.69L572.72 45.09C561.4 41.63 538.24 52.09 535.09 35.19C535.14 27.44 544.46 25.24 550.65 24.52C562.45 22.7 575.41 24.6 586.4 19.35C592.27 15.18 586.14 8.71001 580.83 8.22001C562 4.66001 542.71 9.22001 524.18 12.67C522.96 12.9233 522.22 12.42 521.96 11.16C521.41 8.52001 521.42 8.55001 524.04 7.99001C544.44 5.01001 571.34 -3.74999 590.03 7.71001C606.08 32.97 557.37 25.22 544.97 30.45C534.87 33.46 541.09 41.02 548.84 40.35C556.91 40.65 565.15 38.68 573.12 40.21C578.51 41.56 578.75 48.96 573.35 50.36C569.15 51.81 564.41 50.83 560.3 52.18C560.32 52.34 560.33 52.49 560.35 52.65L560.33 52.68Z" fill="white"/>
<path d="M592.86 167.25C591.69 168.18 590.59 169.06 589.38 170.03C587.25 168.57 584.46 161.85 582.07 162.76C570.64 170.9 555.43 169.08 546.16 158.69C542.06 162.56 538.01 166.39 533.84 170.33C533.02 169.04 529.73 167.38 531.61 166.09C535.33 162.55 539.04 159 542.8 155.51C543.52 154.84 543.67 154.28 543.36 153.33C540.64 145.14 545.76 137.88 554.39 137.73C556.69 137.33 559.42 139.1 561.44 137.77C572.55 125.84 593.97 129.1 591.07 148.15C588.22 161.15 582.38 154.93 592.85 167.25H592.86ZM566.47 163.26C568.9 163.4 582.39 160.7 578.73 157.21C574.68 153.28 566.54 143.32 560.78 144.59C559.19 147.21 548.11 154.35 550.53 156.63C554.8 161.3 560.28 162.98 566.47 163.26ZM583 155.06C594.39 140.49 577.99 127.4 565.77 140.58C572.59 144.07 577.93 149.35 583 155.06ZM547.49 151C550.56 148.04 553.35 145.35 556.4 142.41C550.81 141.52 546.12 145.12 547.49 151Z" fill="white"/>
<path d="M574.32 69.05C581.36 72.23 587.76 76.13 593.68 81.13C592.71 82.31 591.8 83.42 590.84 84.59C587.38 82.24 572.7 71.12 569.54 73.53C556.82 85.62 538.21 91.67 521.09 86.53C502.67 80.25 513.85 62.62 528.91 61.91C573.81 56.17 560.34 86.26 589.54 40.78C590.71 41.86 593.5 42.27 592.78 44.13C587.05 52.79 581.21 61.26 574.32 69.05ZM565.87 70.92C552.67 66.47 537.57 63.43 523.99 67.95C518.43 69.5 512.16 76.34 519.09 80.54C535.09 88.1 552.95 81.73 565.87 70.92Z" fill="white"/>
<path d="M517.02 37.75C516.55 44.17 517.77 51.18 512.74 55.99C506.71 62.28 495.66 58.03 494.8 49.55C493.23 40.55 499.31 32.95 508.68 32.1C509.99 31.68 512.63 32.83 512.46 30.65C513.49 18.37 506.38 -1.70999 491.67 10.25C484.46 17.46 483.28 28.53 484.05 38.24C484.2 39.88 484.15 39.89 482.48 40.05C479.51 40.33 479.54 40.33 479.37 37.3C478.74 25.78 480.87 12.24 490.85 5.02001C498.9 -0.389986 508.84 2.14001 513.33 10.72C516.74 17.23 516.83 24.63 517.02 31.79C517.04 32.52 517.29 32.89 518.01 33.15C527.82 36.44 531.85 45.67 531.09 55.59C531.15 56.42 530.64 56.65 529.89 56.59C526.58 56.74 526.61 56.73 526.48 53.44C526.76 46.66 523.76 40 517.01 37.75H517.02ZM512.37 42.25C511.9 40.07 513.54 36.84 511.21 36.56C504.44 36.36 498.47 40.87 499.19 47.83C499.47 51.69 502.01 54.37 505.39 54.37C511.39 54.76 512.26 46.59 512.38 42.25H512.37Z" fill="white"/>
<path d="M503.32 103.09C492.71 116.11 472.24 104.75 482.15 89.41C486.42 81.64 500.35 82.78 501.31 73.33C500.83 65.4 491.41 66.32 487.95 71.78C484.23 75.68 486.1 81.08 479.54 77.5C487.49 51.94 516.74 64.54 501.75 82.06C497.43 85.48 491.68 86.63 487.52 90.34C481.48 94.74 484.5 105.69 492.61 104.22C495.79 103.64 502.03 100.65 498.5 97.02C499.76 96.23 500.96 95.47 502.27 94.64C502.71 95.18 503.13 95.68 503.62 96.27C511.06 90.37 525.2 90.12 528.83 100.33C531.63 116.2 508.72 113.37 503.32 103.09ZM506.47 100.03C509.49 103.27 512.57 106.16 516.91 106.96C521.35 108.01 527.51 104.37 523.31 99.68C518.71 95.29 511.33 96.16 506.46 100.03H506.47Z" fill="white"/>
<path d="M574.4 118.8C572.39 119.33 568.09 117.44 567.7 120.26C567.45 127.61 559.83 136.91 552.28 132.44C543.87 126.67 551.95 116.15 560.13 115.44C563.42 114.63 563.46 114.64 563.27 111.2C564.13 102.33 557.47 87.33 547.63 97.04C542.37 103.38 540.58 112.09 541 120.17C541.2 121.42 540.07 121.3 539.22 121.46C536.47 121.91 536.37 121.91 536.33 119.18C536.38 108.58 539.06 95.04 549.63 90.14C560.71 86.12 567.88 98.27 567.67 108.06C568.32 109.83 566.81 113.77 569.05 114.21C575.61 113.68 587.87 116.75 588.46 107.18C588.55 105.92 589.01 105.65 590.15 105.69C593.8 105.81 593.44 105.36 592.83 109.07C591.94 117.88 582.06 119.18 574.4 118.95V118.8ZM563.1 119.69C559.1 119.8 550.85 123.2 554.07 127.99C558.66 131.58 563.02 123.94 563.1 119.69Z" fill="white"/>
<path d="M587.23 95.75C587.15 91.05 594.62 91.05 594.51 95.76C594.65 100.59 587.08 100.52 587.23 95.75Z" fill="white"/>
<path d="M403.64 41.98C404.06 38.95 404.06 38.99 407.14 39C408.25 39 408.59 39.44 408.41 40.43C408.82 56.96 384.87 65.71 378.55 48.91C378.28 47.98 377.84 47.57 376.94 47.28C369.9 45.53 365 37.98 367.99 30.98C368.94 28.88 365.86 28.71 364.8 27.49C341.65 2.12001 397.18 -6.79999 408.16 12.16C406.69 13.13 405.51 13.9 404.23 14.74C397.91 4.14001 365.6 2.44001 363.89 16.91C363.93 20.69 367.15 24.76 370.83 25.62C378.98 19.99 389.14 15.96 399.39 17.62C406.19 18.14 408.41 27.35 401.61 30.39C393.01 34.34 382.99 33.64 373.98 31.6C373.39 31.45 372.9 31.27 372.49 32C370.15 36.12 373.48 42.31 378.31 42.66C386.53 23.45 405.5 42.97 383.21 48.45C388.61 58.06 402.9 52.34 403.65 41.97L403.64 41.98ZM376.99 27.26C377.01 27.38 377.02 27.5 377.04 27.62C411.81 33.22 405.52 12.09 376.99 27.26ZM388.99 39.47C386.87 38.52 383.55 40.72 383.26 43.27C385.54 43.62 388.59 41.6 388.99 39.47Z" fill="white"/>
<path d="M442.69 120.22C444.21 118.79 447.79 121.12 447.6 118.19C448.04 114.78 448.53 115.16 444.87 115.14C441.7 115 437.87 116.73 438.03 120.22C438.51 128.81 449.78 124.52 455.04 127.21L455.08 127.81C443.76 131.27 420.6 120.81 417.45 137.71C417.5 145.46 426.82 147.66 433.01 148.38C444.81 150.2 457.77 148.3 468.76 153.55C474.63 157.72 468.5 164.19 463.19 164.68C444.36 168.24 425.07 163.68 406.54 160.23C405.32 159.977 404.58 160.48 404.32 161.74C403.77 164.38 403.78 164.35 406.4 164.91C426.8 167.89 453.7 176.65 472.39 165.19C488.44 139.93 439.73 147.68 427.33 142.45C417.23 139.44 423.45 131.88 431.2 132.55C439.27 132.25 447.51 134.22 455.48 132.69C460.87 131.34 461.11 123.94 455.71 122.54C451.51 121.09 446.77 122.07 442.66 120.72C442.68 120.56 442.69 120.41 442.71 120.25L442.69 120.22Z" fill="white"/>
<path d="M473.43 24.75C476.33 43.8 454.9 47.06 443.8 35.13C441.78 33.8 439.04 35.57 436.75 35.17C428.12 35.01 423 27.76 425.72 19.57C426.04 18.62 425.89 18.06 425.16 17.39C421.4 13.9 417.69 10.35 413.97 6.81001C412.09 5.53001 415.38 3.86001 416.2 2.57001C420.37 6.51001 424.42 10.33 428.52 14.21C437.79 3.81001 453 1.99002 464.43 10.14C466.82 11.05 469.61 4.33001 471.74 2.87001C472.95 3.84001 474.06 4.72001 475.22 5.65001C464.75 17.97 470.59 11.75 473.44 24.75H473.43ZM432.88 16.27C430.46 18.55 441.54 25.69 443.13 28.31C448.9 29.58 457.03 19.62 461.08 15.69C464.74 12.2 451.25 9.50001 448.82 9.64001C442.63 9.92001 437.15 11.6 432.88 16.27ZM448.13 32.32C460.34 45.5 476.74 32.41 465.36 17.84C460.29 23.55 454.95 28.83 448.13 32.32ZM438.76 30.48C435.71 27.54 432.92 24.85 429.85 21.89C428.48 27.77 433.17 31.37 438.76 30.48Z" fill="white"/>
<path d="M475.14 128.77C475.86 130.64 473.07 131.04 471.9 132.12C442.7 86.64 456.16 116.73 411.27 110.99C396.21 110.29 385.03 92.65 403.45 86.37C420.57 81.23 439.18 87.28 451.9 99.37C455.06 101.78 469.74 90.66 473.2 88.31C474.15 89.47 475.07 90.59 476.04 91.77C470.11 96.77 463.71 100.67 456.68 103.85C463.58 111.64 469.41 120.11 475.14 128.77ZM401.44 92.36C394.51 96.56 400.79 103.41 406.34 104.95C419.92 109.47 435.02 106.43 448.22 101.98C435.3 91.17 417.43 84.8 401.44 92.36Z" fill="white"/>
<path d="M408.85 119.46C408.98 116.16 408.95 116.16 412.26 116.31C413.01 116.25 413.52 116.48 413.46 117.31C414.22 127.23 410.19 136.47 400.38 139.75C399.66 140.01 399.41 140.38 399.39 141.11C399.2 148.27 399.1 155.67 395.7 162.18C391.21 170.77 381.26 173.29 373.22 167.88C363.24 160.66 361.11 147.12 361.74 135.6C361.91 132.56 361.88 132.56 364.85 132.85C366.51 133.01 366.57 133.01 366.42 134.66C365.65 144.36 366.83 155.43 374.04 162.65C388.74 174.61 395.86 154.53 394.83 142.25C395 140.07 392.37 141.22 391.05 140.8C381.68 139.94 375.6 132.34 377.17 123.35C378.03 114.87 389.08 110.62 395.11 116.91C400.14 121.72 398.93 128.73 399.39 135.15C406.14 132.9 409.14 126.24 408.86 119.46H408.85ZM387.75 118.53C384.37 118.53 381.83 121.22 381.55 125.07C380.83 132.03 386.81 136.54 393.57 136.34C395.9 136.06 394.26 132.83 394.73 130.65C394.61 126.31 393.74 118.14 387.74 118.53H387.75Z" fill="white"/>
<path d="M411.19 72.58C407.57 82.79 393.42 82.54 385.98 76.64C385.49 77.23 385.07 77.73 384.63 78.27C383.32 77.44 382.12 76.68 380.86 75.89C384.39 72.26 378.15 69.27 374.97 68.69C366.86 67.22 363.85 78.17 369.88 82.57C374.03 86.27 379.79 87.42 384.11 90.85C399.11 108.37 369.86 120.97 361.9 95.41C368.47 91.82 366.6 97.23 370.31 101.13C373.76 106.6 383.19 107.52 383.67 99.58C382.71 90.13 368.78 91.28 364.51 83.5C354.59 68.16 375.06 56.8 385.68 69.82C391.08 59.55 413.99 56.71 411.19 72.58ZM405.67 73.23C409.86 68.54 403.71 64.89 399.27 65.95C394.93 66.75 391.85 69.63 388.83 72.88C393.7 76.76 401.08 77.63 405.68 73.23H405.67Z" fill="white"/>
<path d="M456.76 53.95C464.42 53.72 474.3 55.03 475.19 63.83C475.8 67.54 476.16 67.09 472.51 67.21C471.36 67.25 470.9 66.98 470.82 65.72C470.23 56.16 457.97 59.22 451.41 58.69C449.17 59.14 450.68 63.08 450.03 64.84C450.23 74.63 443.07 86.78 431.99 82.76C421.42 77.86 418.74 64.32 418.69 53.72C418.73 50.99 418.84 50.99 421.58 51.44C422.43 51.6 423.56 51.48 423.36 52.73C422.93 60.8 424.73 69.52 429.99 75.86C439.83 85.57 446.49 70.57 445.63 61.7C445.81 58.25 445.78 58.27 442.49 57.46C434.31 56.75 426.23 46.23 434.64 40.46C442.19 35.99 449.81 45.29 450.06 52.64C450.46 55.46 454.76 53.57 456.76 54.1V53.95ZM436.43 44.91C433.21 49.71 441.46 53.11 445.46 53.21C445.38 48.95 441.02 41.31 436.43 44.91Z" fill="white"/>
<path d="M469.58 77.15C469.5 81.85 476.97 81.85 476.86 77.14C477 72.31 469.43 72.38 469.58 77.15Z" fill="white"/>
<path d="M24.2797 295.23C46.5697 300.71 27.5997 320.22 19.3797 301.02C14.5597 301.37 11.2297 307.56 13.5597 311.68C13.9697 312.41 14.4497 312.23 15.0497 312.08C24.0597 310.04 34.0797 309.33 42.6797 313.29C49.4797 316.33 47.2597 325.55 40.4597 326.06C30.2197 327.72 20.0597 323.69 11.8997 318.06C8.20969 318.91 4.99969 322.98 4.95969 326.77C6.67969 341.24 38.9797 339.54 45.2997 328.94C46.5797 329.78 47.7597 330.56 49.2297 331.52C38.2497 350.49 -17.2803 341.57 5.86969 316.19C6.92969 314.97 10.0097 314.8 9.05969 312.7C6.06969 305.71 10.9697 298.15 18.0097 296.4C18.9197 296.11 19.3497 295.7 19.6197 294.77C25.9397 277.98 49.8897 286.72 49.4797 303.25C49.6597 304.24 49.3197 304.68 48.2097 304.68C45.1297 304.68 45.1297 304.73 44.7097 301.7C43.9597 291.34 29.6797 285.61 24.2697 295.22L24.2797 295.23ZM18.1097 316.07C18.0897 316.19 18.0797 316.31 18.0597 316.43C46.5897 331.6 52.8797 310.47 18.1097 316.07ZM24.3297 300.42C24.6197 302.97 27.9397 305.17 30.0597 304.22C29.6597 302.09 26.6097 300.07 24.3297 300.42Z" fill="white"/>
<path d="M83.7597 223.46C85.2797 224.89 88.8597 222.56 88.6697 225.49C89.1097 228.9 89.5997 228.52 85.9397 228.54C82.7697 228.68 78.9397 226.95 79.0997 223.46C79.5797 214.87 90.8497 219.16 96.1097 216.47L96.1497 215.87C84.8297 212.41 61.6697 222.87 58.5197 205.97C58.5697 198.22 67.8897 196.02 74.0797 195.3C85.8797 193.48 98.8397 195.38 109.83 190.13C115.7 185.96 109.57 179.49 104.26 179C85.4297 175.44 66.1397 180 47.6097 183.45C46.3897 183.703 45.6497 183.2 45.3897 181.94C44.8397 179.3 44.8497 179.33 47.4697 178.77C67.8697 175.79 94.7697 167.03 113.46 178.49C129.51 203.75 80.7997 196 68.3997 201.23C58.2997 204.24 64.5197 211.8 72.2697 211.13C80.3397 211.43 88.5797 209.46 96.5497 210.99C101.94 212.34 102.18 219.74 96.7797 221.14C92.5797 222.59 87.8397 221.61 83.7297 222.96C83.7497 223.12 83.7597 223.27 83.7797 223.43L83.7597 223.46Z" fill="white"/>
<path d="M116.29 338.03C115.12 338.96 114.02 339.84 112.81 340.81C110.68 339.35 107.89 332.63 105.5 333.54C94.0697 341.68 78.8597 339.86 69.5897 329.47C65.4897 333.34 61.4397 337.17 57.2697 341.11C56.4497 339.82 53.1597 338.16 55.0397 336.87C58.7597 333.33 62.4697 329.78 66.2297 326.29C66.9497 325.62 67.0997 325.06 66.7897 324.11C64.0697 315.92 69.1897 308.66 77.8197 308.51C80.1197 308.11 82.8497 309.88 84.8697 308.55C95.9797 296.62 117.4 299.88 114.5 318.93C111.65 331.93 105.81 325.71 116.28 338.03H116.29ZM89.8997 334.04C92.3297 334.18 105.82 331.48 102.16 327.99C98.1097 324.06 89.9697 314.1 84.2097 315.37C82.6197 317.99 71.5397 325.13 73.9597 327.41C78.2297 332.08 83.7097 333.76 89.8997 334.04ZM106.43 325.84C117.82 311.27 101.42 298.18 89.1997 311.36C96.0197 314.85 101.36 320.13 106.43 325.84ZM70.9197 321.78C73.9897 318.82 76.7797 316.13 79.8297 313.19C74.2397 312.3 69.5497 315.9 70.9197 321.78Z" fill="white"/>
<path d="M97.7497 239.83C104.79 243.01 111.19 246.91 117.11 251.91C116.14 253.09 115.23 254.2 114.27 255.37C110.81 253.02 96.1297 241.9 92.9697 244.31C80.2497 256.4 61.6397 262.45 44.5197 257.31C26.0997 251.03 37.2797 233.4 52.3397 232.69C97.2397 226.95 83.7697 257.04 112.97 211.56C114.14 212.64 116.93 213.05 116.21 214.91C110.48 223.57 104.64 232.04 97.7497 239.83ZM89.2997 241.7C76.0997 237.25 60.9997 234.21 47.4197 238.73C41.8597 240.28 35.5897 247.12 42.5197 251.32C58.5197 258.88 76.3797 252.51 89.2997 241.7Z" fill="white"/>
<path d="M40.4497 208.53C39.9797 214.95 41.1997 221.96 36.1697 226.77C30.1397 233.06 19.0897 228.81 18.2297 220.33C16.6597 211.33 22.7397 203.73 32.1097 202.88C33.4197 202.46 36.0597 203.61 35.8897 201.43C36.9197 189.15 29.8097 169.07 15.0997 181.03C7.88969 188.24 6.70969 199.31 7.47969 209.02C7.62969 210.66 7.57969 210.67 5.90969 210.83C2.93969 211.11 2.96969 211.11 2.79969 208.08C2.16969 196.56 4.29969 183.02 14.2797 175.8C22.3297 170.39 32.2697 172.92 36.7597 181.5C40.1697 188.01 40.2597 195.41 40.4497 202.57C40.4697 203.3 40.7197 203.67 41.4397 203.93C51.2497 207.22 55.2797 216.45 54.5197 226.37C54.5797 227.2 54.0697 227.43 53.3197 227.37C50.0097 227.52 50.0397 227.51 49.9097 224.22C50.1897 217.44 47.1897 210.78 40.4397 208.53H40.4497ZM35.7997 213.03C35.3297 210.85 36.9697 207.62 34.6397 207.34C27.8697 207.14 21.8997 211.65 22.6197 218.61C22.8997 222.47 25.4397 225.15 28.8197 225.15C34.8197 225.54 35.6897 217.37 35.8097 213.03H35.7997Z" fill="white"/>
<path d="M26.7497 273.87C16.1397 286.89 -4.33031 275.53 5.57969 260.19C9.84969 252.42 23.7797 253.56 24.7397 244.11C24.2597 236.18 14.8397 237.1 11.3797 242.56C7.65969 246.46 9.52969 251.86 2.96969 248.28C10.9197 222.72 40.1697 235.32 25.1797 252.84C20.8597 256.26 15.1097 257.41 10.9497 261.12C4.90969 265.52 7.92969 276.47 16.0397 275C19.2197 274.42 25.4597 271.43 21.9297 267.8C23.1897 267.01 24.3897 266.25 25.6997 265.42C26.1397 265.96 26.5597 266.46 27.0497 267.05C34.4897 261.15 48.6297 260.9 52.2597 271.11C55.0597 286.98 32.1497 284.15 26.7497 273.87ZM29.8997 270.81C32.9197 274.05 35.9997 276.94 40.3397 277.74C44.7797 278.79 50.9397 275.15 46.7397 270.46C42.1397 266.07 34.7597 266.94 29.8897 270.81H29.8997Z" fill="white"/>
<path d="M97.8297 289.58C95.8197 290.11 91.5197 288.22 91.1297 291.04C90.8797 298.39 83.2597 307.69 75.7097 303.22C67.2997 297.45 75.3797 286.93 83.5597 286.22C86.8497 285.41 86.8897 285.42 86.6997 281.98C87.5597 273.11 80.8997 258.11 71.0597 267.82C65.7997 274.16 64.0097 282.87 64.4297 290.95C64.6297 292.2 63.4997 292.08 62.6497 292.24C59.8997 292.69 59.7997 292.69 59.7597 289.96C59.8097 279.36 62.4897 265.82 73.0597 260.92C84.1397 256.9 91.3097 269.05 91.0997 278.84C91.7497 280.61 90.2397 284.55 92.4797 284.99C99.0397 284.46 111.3 287.53 111.89 277.96C111.98 276.7 112.44 276.43 113.58 276.47C117.23 276.59 116.87 276.14 116.26 279.85C115.37 288.66 105.49 289.96 97.8297 289.73V289.58ZM86.5297 290.47C82.5297 290.58 74.2797 293.98 77.4997 298.77C82.0897 302.36 86.4497 294.72 86.5297 290.47Z" fill="white"/>
<path d="M110.66 266.53C110.58 261.83 118.05 261.83 117.94 266.54C118.08 271.37 110.51 271.3 110.66 266.53Z" fill="white"/>
<path d="M168.34 212.75C168.76 209.72 168.76 209.76 171.84 209.77C172.95 209.77 173.29 210.21 173.11 211.2C173.52 227.73 149.57 236.48 143.25 219.68C142.98 218.75 142.54 218.34 141.64 218.05C134.6 216.3 129.7 208.75 132.69 201.75C133.64 199.65 130.56 199.48 129.5 198.26C106.35 172.89 161.88 163.97 172.86 182.93C171.39 183.9 170.21 184.67 168.93 185.51C162.61 174.91 130.3 173.21 128.59 187.68C128.63 191.46 131.85 195.53 135.53 196.39C143.68 190.76 153.84 186.73 164.09 188.39C170.89 188.91 173.11 198.12 166.31 201.16C157.71 205.11 147.69 204.41 138.68 202.37C138.09 202.22 137.6 202.04 137.19 202.77C134.85 206.89 138.18 213.08 143.01 213.43C151.23 194.22 170.2 213.74 147.91 219.22C153.31 228.83 167.6 223.11 168.35 212.74L168.34 212.75ZM141.69 198.03C141.71 198.15 141.72 198.27 141.74 198.39C176.51 203.99 170.22 182.86 141.69 198.03ZM153.69 210.24C151.57 209.29 148.25 211.49 147.96 214.04C150.24 214.39 153.29 212.37 153.69 210.24Z" fill="white"/>
<path d="M207.39 291C208.91 289.57 212.49 291.9 212.3 288.97C212.74 285.56 213.23 285.94 209.57 285.92C206.4 285.78 202.57 287.51 202.73 291C203.21 299.59 214.48 295.3 219.74 297.99L219.78 298.59C208.46 302.05 185.3 291.59 182.15 308.49C182.2 316.24 191.52 318.44 197.71 319.16C209.51 320.98 222.47 319.08 233.46 324.33C239.33 328.5 233.2 334.97 227.89 335.46C209.06 339.02 189.77 334.46 171.24 331.01C170.02 330.757 169.28 331.26 169.02 332.52C168.47 335.16 168.48 335.13 171.1 335.69C191.5 338.67 218.4 347.43 237.09 335.97C253.14 310.71 204.43 318.46 192.03 313.23C181.93 310.22 188.15 302.66 195.9 303.33C203.97 303.03 212.21 305 220.18 303.47C225.57 302.12 225.81 294.72 220.41 293.32C216.21 291.87 211.47 292.85 207.36 291.5C207.38 291.34 207.39 291.19 207.41 291.03L207.39 291Z" fill="white"/>
<path d="M238.13 195.53C241.03 214.58 219.6 217.84 208.5 205.91C206.48 204.58 203.74 206.35 201.45 205.95C192.82 205.79 187.7 198.54 190.42 190.35C190.74 189.4 190.59 188.84 189.86 188.17C186.1 184.68 182.39 181.13 178.67 177.59C176.79 176.31 180.08 174.64 180.9 173.35C185.07 177.29 189.12 181.11 193.22 184.99C202.49 174.59 217.7 172.77 229.13 180.92C231.52 181.83 234.31 175.11 236.44 173.65C237.65 174.62 238.76 175.5 239.92 176.43C229.45 188.75 235.29 182.53 238.14 195.53H238.13ZM197.58 187.05C195.16 189.33 206.24 196.47 207.83 199.09C213.6 200.36 221.73 190.4 225.78 186.47C229.44 182.98 215.95 180.28 213.52 180.42C207.33 180.7 201.85 182.38 197.58 187.05ZM212.83 203.1C225.04 216.28 241.44 203.19 230.06 188.62C224.99 194.33 219.65 199.61 212.83 203.1ZM203.46 201.26C200.41 198.32 197.62 195.63 194.55 192.67C193.18 198.55 197.87 202.15 203.46 201.26Z" fill="white"/>
<path d="M239.84 299.55C240.56 301.42 237.77 301.82 236.6 302.9C207.4 257.42 220.86 287.51 175.97 281.77C160.91 281.07 149.73 263.43 168.15 257.15C185.27 252.01 203.88 258.06 216.6 270.15C219.76 272.56 234.44 261.44 237.9 259.09C238.85 260.25 239.77 261.37 240.74 262.55C234.81 267.55 228.41 271.45 221.38 274.63C228.28 282.42 234.11 290.89 239.84 299.55ZM166.14 263.14C159.21 267.34 165.49 274.19 171.04 275.73C184.62 280.25 199.72 277.21 212.92 272.76C200 261.95 182.13 255.58 166.14 263.14Z" fill="white"/>
<path d="M173.55 290.24C173.68 286.94 173.65 286.94 176.96 287.09C177.71 287.03 178.22 287.26 178.16 288.09C178.92 298.01 174.89 307.25 165.08 310.53C164.36 310.79 164.11 311.16 164.09 311.89C163.9 319.05 163.8 326.45 160.4 332.96C155.91 341.55 145.96 344.07 137.92 338.66C127.94 331.44 125.81 317.9 126.44 306.38C126.61 303.34 126.58 303.34 129.55 303.63C131.21 303.79 131.27 303.79 131.12 305.44C130.35 315.14 131.53 326.21 138.74 333.43C153.44 345.39 160.56 325.31 159.53 313.03C159.7 310.85 157.07 312 155.75 311.58C146.38 310.72 140.3 303.12 141.87 294.13C142.73 285.65 153.78 281.4 159.81 287.69C164.84 292.5 163.63 299.51 164.09 305.93C170.84 303.68 173.84 297.02 173.56 290.24H173.55ZM152.45 289.31C149.07 289.31 146.53 292 146.25 295.85C145.53 302.81 151.51 307.32 158.27 307.12C160.6 306.84 158.96 303.61 159.43 301.43C159.31 297.09 158.44 288.92 152.44 289.31H152.45Z" fill="white"/>
<path d="M175.89 243.36C172.27 253.57 158.12 253.32 150.68 247.42C150.19 248.01 149.77 248.51 149.33 249.05C148.02 248.22 146.82 247.46 145.56 246.67C149.09 243.04 142.85 240.05 139.67 239.47C131.56 238 128.55 248.95 134.58 253.35C138.73 257.05 144.49 258.2 148.81 261.63C163.81 279.15 134.56 291.75 126.6 266.19C133.17 262.6 131.3 268.01 135.01 271.91C138.46 277.38 147.89 278.3 148.37 270.36C147.41 260.91 133.48 262.06 129.21 254.28C119.29 238.94 139.76 227.58 150.38 240.6C155.78 230.33 178.69 227.49 175.89 243.36ZM170.37 244.01C174.56 239.32 168.41 235.67 163.97 236.73C159.63 237.53 156.55 240.41 153.53 243.66C158.4 247.54 165.78 248.41 170.38 244.01H170.37Z" fill="white"/>
<path d="M221.46 224.73C229.12 224.5 239 225.81 239.89 234.61C240.5 238.32 240.86 237.87 237.21 237.99C236.06 238.03 235.6 237.76 235.52 236.5C234.93 226.94 222.67 230 216.11 229.47C213.87 229.92 215.38 233.86 214.73 235.62C214.93 245.41 207.77 257.56 196.69 253.54C186.12 248.64 183.44 235.1 183.39 224.5C183.43 221.77 183.54 221.77 186.28 222.22C187.13 222.38 188.26 222.26 188.06 223.51C187.63 231.58 189.43 240.3 194.69 246.64C204.53 256.35 211.19 241.35 210.33 232.48C210.51 229.03 210.48 229.05 207.19 228.24C199.01 227.53 190.93 217.01 199.34 211.24C206.89 206.77 214.51 216.07 214.76 223.42C215.16 226.24 219.46 224.35 221.46 224.88V224.73ZM201.13 215.69C197.91 220.49 206.16 223.89 210.16 223.99C210.08 219.73 205.72 212.09 201.13 215.69Z" fill="white"/>
<path d="M234.28 247.93C234.2 252.63 241.67 252.63 241.56 247.92C241.7 243.09 234.13 243.16 234.28 247.93Z" fill="white"/>
<path d="M265.56 295.23C287.85 300.71 268.88 320.22 260.66 301.02C255.84 301.37 252.51 307.56 254.84 311.68C255.25 312.41 255.73 312.23 256.33 312.08C265.34 310.04 275.36 309.33 283.96 313.29C290.76 316.33 288.54 325.55 281.74 326.06C271.5 327.72 261.34 323.69 253.18 318.06C249.49 318.91 246.28 322.98 246.24 326.77C247.96 341.24 280.26 339.54 286.58 328.94C287.86 329.78 289.04 330.56 290.51 331.52C279.53 350.49 224 341.57 247.15 316.19C248.21 314.97 251.29 314.8 250.34 312.7C247.35 305.71 252.25 298.15 259.29 296.4C260.2 296.11 260.63 295.7 260.9 294.77C267.22 277.98 291.17 286.72 290.76 303.25C290.94 304.24 290.6 304.68 289.49 304.68C286.41 304.68 286.41 304.73 285.99 301.7C285.24 291.34 270.96 285.61 265.55 295.22L265.56 295.23ZM259.39 316.07C259.37 316.19 259.36 316.31 259.34 316.43C287.87 331.6 294.16 310.47 259.39 316.07ZM265.61 300.42C265.9 302.97 269.22 305.17 271.34 304.22C270.94 302.09 267.89 300.07 265.61 300.42Z" fill="white"/>
<path d="M325.05 223.46C326.57 224.89 330.15 222.56 329.96 225.49C330.4 228.9 330.89 228.52 327.23 228.54C324.06 228.68 320.23 226.95 320.39 223.46C320.87 214.87 332.14 219.16 337.4 216.47L337.44 215.87C326.12 212.41 302.96 222.87 299.81 205.97C299.86 198.22 309.18 196.02 315.37 195.3C327.17 193.48 340.13 195.38 351.12 190.13C356.99 185.96 350.86 179.49 345.55 179C326.72 175.44 307.43 180 288.9 183.45C287.68 183.703 286.94 183.2 286.68 181.94C286.13 179.3 286.14 179.33 288.76 178.77C309.16 175.79 336.06 167.03 354.75 178.49C370.8 203.75 322.09 196 309.69 201.23C299.59 204.24 305.81 211.8 313.56 211.13C321.63 211.43 329.87 209.46 337.84 210.99C343.23 212.34 343.47 219.74 338.07 221.14C333.87 222.59 329.13 221.61 325.02 222.96C325.04 223.12 325.05 223.27 325.07 223.43L325.05 223.46Z" fill="white"/>
<path d="M357.57 338.03C356.4 338.96 355.3 339.84 354.09 340.81C351.96 339.35 349.17 332.63 346.78 333.54C335.35 341.68 320.14 339.86 310.87 329.47C306.77 333.34 302.72 337.17 298.55 341.11C297.73 339.82 294.44 338.16 296.32 336.87C300.04 333.33 303.75 329.78 307.51 326.29C308.23 325.62 308.38 325.06 308.07 324.11C305.35 315.92 310.47 308.66 319.1 308.51C321.4 308.11 324.13 309.88 326.15 308.55C337.26 296.62 358.68 299.88 355.78 318.93C352.93 331.93 347.09 325.71 357.56 338.03H357.57ZM331.18 334.04C333.61 334.18 347.1 331.48 343.44 327.99C339.39 324.06 331.25 314.1 325.49 315.37C323.9 317.99 312.82 325.13 315.24 327.41C319.51 332.08 324.99 333.76 331.18 334.04ZM347.71 325.84C359.1 311.27 342.7 298.18 330.48 311.36C337.3 314.85 342.64 320.13 347.71 325.84ZM312.2 321.78C315.27 318.82 318.06 316.13 321.11 313.19C315.52 312.3 310.83 315.9 312.2 321.78Z" fill="white"/>
<path d="M339.04 239.83C346.08 243.01 352.48 246.91 358.4 251.91C357.43 253.09 356.52 254.2 355.56 255.37C352.1 253.02 337.42 241.9 334.26 244.31C321.54 256.4 302.93 262.45 285.81 257.31C267.39 251.03 278.57 233.4 293.63 232.69C338.53 226.95 325.06 257.04 354.26 211.56C355.43 212.64 358.22 213.05 357.5 214.91C351.77 223.57 345.93 232.04 339.04 239.83ZM330.59 241.7C317.39 237.25 302.29 234.21 288.71 238.73C283.15 240.28 276.88 247.12 283.81 251.32C299.81 258.88 317.67 252.51 330.59 241.7Z" fill="white"/>
<path d="M281.74 208.53C281.27 214.95 282.49 221.96 277.46 226.77C271.43 233.06 260.38 228.81 259.52 220.33C257.95 211.33 264.03 203.73 273.4 202.88C274.71 202.46 277.35 203.61 277.18 201.43C278.21 189.15 271.1 169.07 256.39 181.03C249.18 188.24 248 199.31 248.77 209.02C248.92 210.66 248.87 210.67 247.2 210.83C244.23 211.11 244.26 211.11 244.09 208.08C243.46 196.56 245.59 183.02 255.57 175.8C263.62 170.39 273.56 172.92 278.05 181.5C281.46 188.01 281.55 195.41 281.74 202.57C281.76 203.3 282.01 203.67 282.73 203.93C292.54 207.22 296.57 216.45 295.81 226.37C295.87 227.2 295.36 227.43 294.61 227.37C291.3 227.52 291.33 227.51 291.2 224.22C291.48 217.44 288.48 210.78 281.73 208.53H281.74ZM277.09 213.03C276.62 210.85 278.26 207.62 275.93 207.34C269.16 207.14 263.19 211.65 263.91 218.61C264.19 222.47 266.73 225.15 270.11 225.15C276.11 225.54 276.98 217.37 277.1 213.03H277.09Z" fill="white"/>
<path d="M268.03 273.87C257.42 286.89 236.95 275.53 246.86 260.19C251.13 252.42 265.06 253.56 266.02 244.11C265.54 236.18 256.12 237.1 252.66 242.56C248.94 246.46 250.81 251.86 244.25 248.28C252.2 222.72 281.45 235.32 266.46 252.84C262.14 256.26 256.39 257.41 252.23 261.12C246.19 265.52 249.21 276.47 257.32 275C260.5 274.42 266.74 271.43 263.21 267.8C264.47 267.01 265.67 266.25 266.98 265.42C267.42 265.96 267.84 266.46 268.33 267.05C275.77 261.15 289.91 260.9 293.54 271.11C296.34 286.98 273.43 284.15 268.03 273.87ZM271.18 270.81C274.2 274.05 277.28 276.94 281.62 277.74C286.06 278.79 292.22 275.15 288.02 270.46C283.42 266.07 276.04 266.94 271.17 270.81H271.18Z" fill="white"/>
<path d="M339.11 289.58C337.1 290.11 332.8 288.22 332.41 291.04C332.16 298.39 324.54 307.69 316.99 303.22C308.58 297.45 316.66 286.93 324.84 286.22C328.13 285.41 328.17 285.42 327.98 281.98C328.84 273.11 322.18 258.11 312.34 267.82C307.08 274.16 305.29 282.87 305.71 290.95C305.91 292.2 304.78 292.08 303.93 292.24C301.18 292.69 301.08 292.69 301.04 289.96C301.09 279.36 303.77 265.82 314.34 260.92C325.42 256.9 332.59 269.05 332.38 278.84C333.03 280.61 331.52 284.55 333.76 284.99C340.32 284.46 352.58 287.53 353.17 277.96C353.26 276.7 353.72 276.43 354.86 276.47C358.51 276.59 358.15 276.14 357.54 279.85C356.65 288.66 346.77 289.96 339.11 289.73V289.58ZM327.81 290.47C323.81 290.58 315.56 293.98 318.78 298.77C323.37 302.36 327.73 294.72 327.81 290.47Z" fill="white"/>
<path d="M351.94 266.53C351.86 261.83 359.33 261.83 359.22 266.54C359.36 271.37 351.79 271.3 351.94 266.53Z" fill="white"/>
<path d="M500.85 295.23C523.14 300.71 504.17 320.22 495.95 301.02C491.13 301.37 487.8 307.56 490.13 311.68C490.54 312.41 491.02 312.23 491.62 312.08C500.63 310.04 510.65 309.33 519.25 313.29C526.05 316.33 523.83 325.55 517.03 326.06C506.79 327.72 496.63 323.69 488.47 318.06C484.78 318.91 481.57 322.98 481.53 326.77C483.25 341.24 515.55 339.54 521.87 328.94C523.15 329.78 524.33 330.56 525.8 331.52C514.82 350.49 459.29 341.57 482.44 316.19C483.5 314.97 486.58 314.8 485.63 312.7C482.64 305.71 487.54 298.15 494.58 296.4C495.49 296.11 495.92 295.7 496.19 294.77C502.51 277.98 526.46 286.72 526.05 303.25C526.23 304.24 525.89 304.68 524.78 304.68C521.7 304.68 521.7 304.73 521.28 301.7C520.53 291.34 506.25 285.61 500.84 295.22L500.85 295.23ZM494.68 316.07C494.66 316.19 494.65 316.31 494.63 316.43C523.16 331.6 529.45 310.47 494.68 316.07ZM500.9 300.42C501.19 302.97 504.51 305.17 506.63 304.22C506.23 302.09 503.18 300.07 500.9 300.42Z" fill="white"/>
<path d="M560.33 223.46C561.85 224.89 565.43 222.56 565.24 225.49C565.68 228.9 566.17 228.52 562.51 228.54C559.34 228.68 555.51 226.95 555.67 223.46C556.15 214.87 567.42 219.16 572.68 216.47L572.72 215.87C561.4 212.41 538.24 222.87 535.09 205.97C535.14 198.22 544.46 196.02 550.65 195.3C562.45 193.48 575.41 195.38 586.4 190.13C592.27 185.96 586.14 179.49 580.83 179C562 175.44 542.71 180 524.18 183.45C522.96 183.703 522.22 183.2 521.96 181.94C521.41 179.3 521.42 179.33 524.04 178.77C544.44 175.79 571.34 167.03 590.03 178.49C606.08 203.75 557.37 196 544.97 201.23C534.87 204.24 541.09 211.8 548.84 211.13C556.91 211.43 565.15 209.46 573.12 210.99C578.51 212.34 578.75 219.74 573.35 221.14C569.15 222.59 564.41 221.61 560.3 222.96C560.32 223.12 560.33 223.27 560.35 223.43L560.33 223.46Z" fill="white"/>
<path d="M592.86 338.03C591.69 338.96 590.59 339.84 589.38 340.81C587.25 339.35 584.46 332.63 582.07 333.54C570.64 341.68 555.43 339.86 546.16 329.47C542.06 333.34 538.01 337.17 533.84 341.11C533.02 339.82 529.73 338.16 531.61 336.87C535.33 333.33 539.04 329.78 542.8 326.29C543.52 325.62 543.67 325.06 543.36 324.11C540.64 315.92 545.76 308.66 554.39 308.51C556.69 308.11 559.42 309.88 561.44 308.55C572.55 296.62 593.97 299.88 591.07 318.93C588.22 331.93 582.38 325.71 592.85 338.03H592.86ZM566.47 334.04C568.9 334.18 582.39 331.48 578.73 327.99C574.68 324.06 566.54 314.1 560.78 315.37C559.19 317.99 548.11 325.13 550.53 327.41C554.8 332.08 560.28 333.76 566.47 334.04ZM583 325.84C594.39 311.27 577.99 298.18 565.77 311.36C572.59 314.85 577.93 320.13 583 325.84ZM547.49 321.78C550.56 318.82 553.35 316.13 556.4 313.19C550.81 312.3 546.12 315.9 547.49 321.78Z" fill="white"/>
<path d="M574.32 239.83C581.36 243.01 587.76 246.91 593.68 251.91C592.71 253.09 591.8 254.2 590.84 255.37C587.38 253.02 572.7 241.9 569.54 244.31C556.82 256.4 538.21 262.45 521.09 257.31C502.67 251.03 513.85 233.4 528.91 232.69C573.81 226.95 560.34 257.04 589.54 211.56C590.71 212.64 593.5 213.05 592.78 214.91C587.05 223.57 581.21 232.04 574.32 239.83ZM565.87 241.7C552.67 237.25 537.57 234.21 523.99 238.73C518.43 240.28 512.16 247.12 519.09 251.32C535.09 258.88 552.95 252.51 565.87 241.7Z" fill="white"/>
<path d="M517.02 208.53C516.55 214.95 517.77 221.96 512.74 226.77C506.71 233.06 495.66 228.81 494.8 220.33C493.23 211.33 499.31 203.73 508.68 202.88C509.99 202.46 512.63 203.61 512.46 201.43C513.49 189.15 506.38 169.07 491.67 181.03C484.46 188.24 483.28 199.31 484.05 209.02C484.2 210.66 484.15 210.67 482.48 210.83C479.51 211.11 479.54 211.11 479.37 208.08C478.74 196.56 480.87 183.02 490.85 175.8C498.9 170.39 508.84 172.92 513.33 181.5C516.74 188.01 516.83 195.41 517.02 202.57C517.04 203.3 517.29 203.67 518.01 203.93C527.82 207.22 531.85 216.45 531.09 226.37C531.15 227.2 530.64 227.43 529.89 227.37C526.58 227.52 526.61 227.51 526.48 224.22C526.76 217.44 523.76 210.78 517.01 208.53H517.02ZM512.37 213.03C511.9 210.85 513.54 207.62 511.21 207.34C504.44 207.14 498.47 211.65 499.19 218.61C499.47 222.47 502.01 225.15 505.39 225.15C511.39 225.54 512.26 217.37 512.38 213.03H512.37Z" fill="white"/>
<path d="M503.32 273.87C492.71 286.89 472.24 275.53 482.15 260.19C486.42 252.42 500.35 253.56 501.31 244.11C500.83 236.18 491.41 237.1 487.95 242.56C484.23 246.46 486.1 251.86 479.54 248.28C487.49 222.72 516.74 235.32 501.75 252.84C497.43 256.26 491.68 257.41 487.52 261.12C481.48 265.52 484.5 276.47 492.61 275C495.79 274.42 502.03 271.43 498.5 267.8C499.76 267.01 500.96 266.25 502.27 265.42C502.71 265.96 503.13 266.46 503.62 267.05C511.06 261.15 525.2 260.9 528.83 271.11C531.63 286.98 508.72 284.15 503.32 273.87ZM506.47 270.81C509.49 274.05 512.57 276.94 516.91 277.74C521.35 278.79 527.51 275.15 523.31 270.46C518.71 266.07 511.33 266.94 506.46 270.81H506.47Z" fill="white"/>
<path d="M574.4 289.58C572.39 290.11 568.09 288.22 567.7 291.04C567.45 298.39 559.83 307.69 552.28 303.22C543.87 297.45 551.95 286.93 560.13 286.22C563.42 285.41 563.46 285.42 563.27 281.98C564.13 273.11 557.47 258.11 547.63 267.82C542.37 274.16 540.58 282.87 541 290.95C541.2 292.2 540.07 292.08 539.22 292.24C536.47 292.69 536.37 292.69 536.33 289.96C536.38 279.36 539.06 265.82 549.63 260.92C560.71 256.9 567.88 269.05 567.67 278.84C568.32 280.61 566.81 284.55 569.05 284.99C575.61 284.46 587.87 287.53 588.46 277.96C588.55 276.7 589.01 276.43 590.15 276.47C593.8 276.59 593.44 276.14 592.83 279.85C591.94 288.66 582.06 289.96 574.4 289.73V289.58ZM563.1 290.47C559.1 290.58 550.85 293.98 554.07 298.77C558.66 302.36 563.02 294.72 563.1 290.47Z" fill="white"/>
<path d="M587.23 266.53C587.15 261.83 594.62 261.83 594.51 266.54C594.65 271.37 587.08 271.3 587.23 266.53Z" fill="white"/>
<path d="M403.64 212.75C404.06 209.72 404.06 209.76 407.14 209.77C408.25 209.77 408.59 210.21 408.41 211.2C408.82 227.73 384.87 236.48 378.55 219.68C378.28 218.75 377.84 218.34 376.94 218.05C369.9 216.3 365 208.75 367.99 201.75C368.94 199.65 365.86 199.48 364.8 198.26C341.65 172.89 397.18 163.97 408.16 182.93C406.69 183.9 405.51 184.67 404.23 185.51C397.91 174.91 365.6 173.21 363.89 187.68C363.93 191.46 367.15 195.53 370.83 196.39C378.98 190.76 389.14 186.73 399.39 188.39C406.19 188.91 408.41 198.12 401.61 201.16C393.01 205.11 382.99 204.41 373.98 202.37C373.39 202.22 372.9 202.04 372.49 202.77C370.15 206.89 373.48 213.08 378.31 213.43C386.53 194.22 405.5 213.74 383.21 219.22C388.61 228.83 402.9 223.11 403.65 212.74L403.64 212.75ZM376.99 198.03C377.01 198.15 377.02 198.27 377.04 198.39C411.81 203.99 405.52 182.86 376.99 198.03ZM388.99 210.24C386.87 209.29 383.55 211.49 383.26 214.04C385.54 214.39 388.59 212.37 388.99 210.24Z" fill="white"/>
<path d="M442.69 291C444.21 289.57 447.79 291.9 447.6 288.97C448.04 285.56 448.53 285.94 444.87 285.92C441.7 285.78 437.87 287.51 438.03 291C438.51 299.59 449.78 295.3 455.04 297.99L455.08 298.59C443.76 302.05 420.6 291.59 417.45 308.49C417.5 316.24 426.82 318.44 433.01 319.16C444.81 320.98 457.77 319.08 468.76 324.33C474.63 328.5 468.5 334.97 463.19 335.46C444.36 339.02 425.07 334.46 406.54 331.01C405.32 330.757 404.58 331.26 404.32 332.52C403.77 335.16 403.78 335.13 406.4 335.69C426.8 338.67 453.7 347.43 472.39 335.97C488.44 310.71 439.73 318.46 427.33 313.23C417.23 310.22 423.45 302.66 431.2 303.33C439.27 303.03 447.51 305 455.48 303.47C460.87 302.12 461.11 294.72 455.71 293.32C451.51 291.87 446.77 292.85 442.66 291.5C442.68 291.34 442.69 291.19 442.71 291.03L442.69 291Z" fill="white"/>
<path d="M473.43 195.53C476.33 214.58 454.9 217.84 443.8 205.91C441.78 204.58 439.04 206.35 436.75 205.95C428.12 205.79 423 198.54 425.72 190.35C426.04 189.4 425.89 188.84 425.16 188.17C421.4 184.68 417.69 181.13 413.97 177.59C412.09 176.31 415.38 174.64 416.2 173.35C420.37 177.29 424.42 181.11 428.52 184.99C437.79 174.59 453 172.77 464.43 180.92C466.82 181.83 469.61 175.11 471.74 173.65C472.95 174.62 474.06 175.5 475.22 176.43C464.75 188.75 470.59 182.53 473.44 195.53H473.43ZM432.88 187.05C430.46 189.33 441.54 196.47 443.13 199.09C448.9 200.36 457.03 190.4 461.08 186.47C464.74 182.98 451.25 180.28 448.82 180.42C442.63 180.7 437.15 182.38 432.88 187.05ZM448.13 203.1C460.34 216.28 476.74 203.19 465.36 188.62C460.29 194.33 454.95 199.61 448.13 203.1ZM438.76 201.26C435.71 198.32 432.92 195.63 429.85 192.67C428.48 198.55 433.17 202.15 438.76 201.26Z" fill="white"/>
<path d="M475.14 299.55C475.86 301.42 473.07 301.82 471.9 302.9C442.7 257.42 456.16 287.51 411.27 281.77C396.21 281.07 385.03 263.43 403.45 257.15C420.57 252.01 439.18 258.06 451.9 270.15C455.06 272.56 469.74 261.44 473.2 259.09C474.15 260.25 475.07 261.37 476.04 262.55C470.11 267.55 463.71 271.45 456.68 274.63C463.58 282.42 469.41 290.89 475.14 299.55ZM401.44 263.14C394.51 267.34 400.79 274.19 406.34 275.73C419.92 280.25 435.02 277.21 448.22 272.76C435.3 261.95 417.43 255.58 401.44 263.14Z" fill="white"/>
<path d="M408.85 290.24C408.98 286.94 408.95 286.94 412.26 287.09C413.01 287.03 413.52 287.26 413.46 288.09C414.22 298.01 410.19 307.25 400.38 310.53C399.66 310.79 399.41 311.16 399.39 311.89C399.2 319.05 399.1 326.45 395.7 332.96C391.21 341.55 381.26 344.07 373.22 338.66C363.24 331.44 361.11 317.9 361.74 306.38C361.91 303.34 361.88 303.34 364.85 303.63C366.51 303.79 366.57 303.79 366.42 305.44C365.65 315.14 366.83 326.21 374.04 333.43C388.74 345.39 395.86 325.31 394.83 313.03C395 310.85 392.37 312 391.05 311.58C381.68 310.72 375.6 303.12 377.17 294.13C378.03 285.65 389.08 281.4 395.11 287.69C400.14 292.5 398.93 299.51 399.39 305.93C406.14 303.68 409.14 297.02 408.86 290.24H408.85ZM387.75 289.31C384.37 289.31 381.83 292 381.55 295.85C380.83 302.81 386.81 307.32 393.57 307.12C395.9 306.84 394.26 303.61 394.73 301.43C394.61 297.09 393.74 288.92 387.74 289.31H387.75Z" fill="white"/>
<path d="M411.19 243.36C407.57 253.57 393.42 253.32 385.98 247.42C385.49 248.01 385.07 248.51 384.63 249.05C383.32 248.22 382.12 247.46 380.86 246.67C384.39 243.04 378.15 240.05 374.97 239.47C366.86 238 363.85 248.95 369.88 253.35C374.03 257.05 379.79 258.2 384.11 261.63C399.11 279.15 369.86 291.75 361.9 266.19C368.47 262.6 366.6 268.01 370.31 271.91C373.76 277.38 383.19 278.3 383.67 270.36C382.71 260.91 368.78 262.06 364.51 254.28C354.59 238.94 375.06 227.58 385.68 240.6C391.08 230.33 413.99 227.49 411.19 243.36ZM405.67 244.01C409.86 239.32 403.71 235.67 399.27 236.73C394.93 237.53 391.85 240.41 388.83 243.66C393.7 247.54 401.08 248.41 405.68 244.01H405.67Z" fill="white"/>
<path d="M456.76 224.73C464.42 224.5 474.3 225.81 475.19 234.61C475.8 238.32 476.16 237.87 472.51 237.99C471.36 238.03 470.9 237.76 470.82 236.5C470.23 226.94 457.97 230 451.41 229.47C449.17 229.92 450.68 233.86 450.03 235.62C450.23 245.41 443.07 257.56 431.99 253.54C421.42 248.64 418.74 235.1 418.69 224.5C418.73 221.77 418.84 221.77 421.58 222.22C422.43 222.38 423.56 222.26 423.36 223.51C422.93 231.58 424.73 240.3 429.99 246.64C439.83 256.35 446.49 241.35 445.63 232.48C445.81 229.03 445.78 229.05 442.49 228.24C434.31 227.53 426.23 217.01 434.64 211.24C442.19 206.77 449.81 216.07 450.06 223.42C450.46 226.24 454.76 224.35 456.76 224.88V224.73ZM436.43 215.69C433.21 220.49 441.46 223.89 445.46 223.99C445.38 219.73 441.02 212.09 436.43 215.69Z" fill="white"/>
<path d="M469.58 247.93C469.5 252.63 476.97 252.63 476.86 247.92C477 243.09 469.43 243.16 469.58 247.93Z" fill="white"/>
<path d="M24.2797 466.01C46.5697 471.49 27.5997 491 19.3797 471.8C14.5597 472.15 11.2297 478.34 13.5597 482.46C13.9697 483.19 14.4497 483.01 15.0497 482.86C24.0597 480.82 34.0797 480.11 42.6797 484.07C49.4797 487.11 47.2597 496.33 40.4597 496.84C30.2197 498.5 20.0597 494.47 11.8997 488.84C8.20969 489.69 4.99969 493.76 4.95969 497.55C6.67969 512.02 38.9797 510.32 45.2997 499.72C46.5797 500.56 47.7597 501.34 49.2297 502.3C38.2497 521.27 -17.2803 512.35 5.86969 486.97C6.92969 485.75 10.0097 485.58 9.05969 483.48C6.06969 476.49 10.9697 468.93 18.0097 467.18C18.9197 466.89 19.3497 466.48 19.6197 465.55C25.9397 448.76 49.8897 457.5 49.4797 474.03C49.6597 475.02 49.3197 475.46 48.2097 475.46C45.1297 475.46 45.1297 475.51 44.7097 472.48C43.9597 462.12 29.6797 456.39 24.2697 466L24.2797 466.01ZM18.1097 486.85C18.0897 486.97 18.0797 487.09 18.0597 487.21C46.5897 502.38 52.8797 481.25 18.1097 486.85ZM24.3297 471.2C24.6197 473.75 27.9397 475.95 30.0597 475C29.6597 472.87 26.6097 470.85 24.3297 471.2Z" fill="white"/>
<path d="M83.7597 394.24C85.2797 395.67 88.8597 393.34 88.6697 396.27C89.1097 399.68 89.5997 399.3 85.9397 399.32C82.7697 399.46 78.9397 397.73 79.0997 394.24C79.5797 385.65 90.8497 389.94 96.1097 387.25L96.1497 386.65C84.8297 383.19 61.6697 393.65 58.5197 376.75C58.5697 369 67.8897 366.8 74.0797 366.08C85.8797 364.26 98.8397 366.16 109.83 360.91C115.7 356.74 109.57 350.27 104.26 349.78C85.4297 346.22 66.1397 350.78 47.6097 354.23C46.3897 354.483 45.6497 353.98 45.3897 352.72C44.8397 350.08 44.8497 350.11 47.4697 349.55C67.8697 346.57 94.7697 337.81 113.46 349.27C129.51 374.53 80.7997 366.78 68.3997 372.01C58.2997 375.02 64.5197 382.58 72.2697 381.91C80.3397 382.21 88.5797 380.24 96.5497 381.77C101.94 383.12 102.18 390.52 96.7797 391.92C92.5797 393.37 87.8397 392.39 83.7297 393.74C83.7497 393.9 83.7597 394.05 83.7797 394.21L83.7597 394.24Z" fill="white"/>
<path d="M116.29 508.81C115.12 509.74 114.02 510.62 112.81 511.59C110.68 510.13 107.89 503.41 105.5 504.32C94.0697 512.46 78.8597 510.64 69.5897 500.25C65.4897 504.12 61.4397 507.95 57.2697 511.89C56.4497 510.6 53.1597 508.94 55.0397 507.65C58.7597 504.11 62.4697 500.56 66.2297 497.07C66.9497 496.4 67.0997 495.84 66.7897 494.89C64.0697 486.7 69.1897 479.44 77.8197 479.29C80.1197 478.89 82.8497 480.66 84.8697 479.33C95.9797 467.4 117.4 470.66 114.5 489.71C111.65 502.71 105.81 496.49 116.28 508.81H116.29ZM89.8997 504.82C92.3297 504.96 105.82 502.26 102.16 498.77C98.1097 494.84 89.9697 484.88 84.2097 486.15C82.6197 488.77 71.5397 495.91 73.9597 498.19C78.2297 502.86 83.7097 504.54 89.8997 504.82ZM106.43 496.62C117.82 482.05 101.42 468.96 89.1997 482.14C96.0197 485.63 101.36 490.91 106.43 496.62ZM70.9197 492.56C73.9897 489.6 76.7797 486.91 79.8297 483.97C74.2397 483.08 69.5497 486.68 70.9197 492.56Z" fill="white"/>
<path d="M97.7497 410.61C104.79 413.79 111.19 417.69 117.11 422.69C116.14 423.87 115.23 424.98 114.27 426.15C110.81 423.8 96.1297 412.68 92.9697 415.09C80.2497 427.18 61.6397 433.23 44.5197 428.09C26.0997 421.81 37.2797 404.18 52.3397 403.47C97.2397 397.73 83.7697 427.82 112.97 382.34C114.14 383.42 116.93 383.83 116.21 385.69C110.48 394.35 104.64 402.82 97.7497 410.61ZM89.2997 412.48C76.0997 408.03 60.9997 404.99 47.4197 409.51C41.8597 411.06 35.5897 417.9 42.5197 422.1C58.5197 429.66 76.3797 423.29 89.2997 412.48Z" fill="white"/>
<path d="M40.4497 379.31C39.9797 385.73 41.1997 392.74 36.1697 397.55C30.1397 403.84 19.0897 399.59 18.2297 391.11C16.6597 382.11 22.7397 374.51 32.1097 373.66C33.4197 373.24 36.0597 374.39 35.8897 372.21C36.9197 359.93 29.8097 339.85 15.0997 351.81C7.88969 359.02 6.70969 370.09 7.47969 379.8C7.62969 381.44 7.57969 381.45 5.90969 381.61C2.93969 381.89 2.96969 381.89 2.79969 378.86C2.16969 367.34 4.29969 353.8 14.2797 346.58C22.3297 341.17 32.2697 343.7 36.7597 352.28C40.1697 358.79 40.2597 366.19 40.4497 373.35C40.4697 374.08 40.7197 374.45 41.4397 374.71C51.2497 378 55.2797 387.23 54.5197 397.15C54.5797 397.98 54.0697 398.21 53.3197 398.15C50.0097 398.3 50.0397 398.29 49.9097 395C50.1897 388.22 47.1897 381.56 40.4397 379.31H40.4497ZM35.7997 383.81C35.3297 381.63 36.9697 378.4 34.6397 378.12C27.8697 377.92 21.8997 382.43 22.6197 389.39C22.8997 393.25 25.4397 395.93 28.8197 395.93C34.8197 396.32 35.6897 388.15 35.8097 383.81H35.7997Z" fill="white"/>
<path d="M26.7497 444.65C16.1397 457.67 -4.33031 446.31 5.57969 430.97C9.84969 423.2 23.7797 424.34 24.7397 414.89C24.2597 406.96 14.8397 407.88 11.3797 413.34C7.65969 417.24 9.52969 422.64 2.96969 419.06C10.9197 393.5 40.1697 406.1 25.1797 423.62C20.8597 427.04 15.1097 428.19 10.9497 431.9C4.90969 436.3 7.92969 447.25 16.0397 445.78C19.2197 445.2 25.4597 442.21 21.9297 438.58C23.1897 437.79 24.3897 437.03 25.6997 436.2C26.1397 436.74 26.5597 437.24 27.0497 437.83C34.4897 431.93 48.6297 431.68 52.2597 441.89C55.0597 457.76 32.1497 454.93 26.7497 444.65ZM29.8997 441.59C32.9197 444.83 35.9997 447.72 40.3397 448.52C44.7797 449.57 50.9397 445.93 46.7397 441.24C42.1397 436.85 34.7597 437.72 29.8897 441.59H29.8997Z" fill="white"/>
<path d="M97.8297 460.36C95.8197 460.89 91.5197 459 91.1297 461.82C90.8797 469.17 83.2597 478.47 75.7097 474C67.2997 468.23 75.3797 457.71 83.5597 457C86.8497 456.19 86.8897 456.2 86.6997 452.76C87.5597 443.89 80.8997 428.89 71.0597 438.6C65.7997 444.94 64.0097 453.65 64.4297 461.73C64.6297 462.98 63.4997 462.86 62.6497 463.02C59.8997 463.47 59.7997 463.47 59.7597 460.74C59.8097 450.14 62.4897 436.6 73.0597 431.7C84.1397 427.68 91.3097 439.83 91.0997 449.62C91.7497 451.39 90.2397 455.33 92.4797 455.77C99.0397 455.24 111.3 458.31 111.89 448.74C111.98 447.48 112.44 447.21 113.58 447.25C117.23 447.37 116.87 446.92 116.26 450.63C115.37 459.44 105.49 460.74 97.8297 460.51V460.36ZM86.5297 461.25C82.5297 461.36 74.2797 464.76 77.4997 469.55C82.0897 473.14 86.4497 465.5 86.5297 461.25Z" fill="white"/>
<path d="M110.66 437.31C110.58 432.61 118.05 432.61 117.94 437.32C118.08 442.15 110.51 442.08 110.66 437.31Z" fill="white"/>
<path d="M168.34 383.53C168.76 380.5 168.76 380.54 171.84 380.55C172.95 380.55 173.29 380.99 173.11 381.98C173.52 398.51 149.57 407.26 143.25 390.46C142.98 389.53 142.54 389.12 141.64 388.83C134.6 387.08 129.7 379.53 132.69 372.53C133.64 370.43 130.56 370.26 129.5 369.04C106.35 343.67 161.88 334.75 172.86 353.71C171.39 354.68 170.21 355.45 168.93 356.29C162.61 345.69 130.3 343.99 128.59 358.46C128.63 362.24 131.85 366.31 135.53 367.17C143.68 361.54 153.84 357.51 164.09 359.17C170.89 359.69 173.11 368.9 166.31 371.94C157.71 375.89 147.69 375.19 138.68 373.15C138.09 373 137.6 372.82 137.19 373.55C134.85 377.67 138.18 383.86 143.01 384.21C151.23 365 170.2 384.52 147.91 390C153.31 399.61 167.6 393.89 168.35 383.52L168.34 383.53ZM141.69 368.81C141.71 368.93 141.72 369.05 141.74 369.17C176.51 374.77 170.22 353.64 141.69 368.81ZM153.69 381.02C151.57 380.07 148.25 382.27 147.96 384.82C150.24 385.17 153.29 383.15 153.69 381.02Z" fill="white"/>
<path d="M207.39 461.78C208.91 460.35 212.49 462.68 212.3 459.75C212.74 456.34 213.23 456.72 209.57 456.7C206.4 456.56 202.57 458.29 202.73 461.78C203.21 470.37 214.48 466.08 219.74 468.77L219.78 469.37C208.46 472.83 185.3 462.37 182.15 479.27C182.2 487.02 191.52 489.22 197.71 489.94C209.51 491.76 222.47 489.86 233.46 495.11C239.33 499.28 233.2 505.75 227.89 506.24C209.06 509.8 189.77 505.24 171.24 501.79C170.02 501.537 169.28 502.04 169.02 503.3C168.47 505.94 168.48 505.91 171.1 506.47C191.5 509.45 218.4 518.21 237.09 506.75C253.14 481.49 204.43 489.24 192.03 484.01C181.93 481 188.15 473.44 195.9 474.11C203.97 473.81 212.21 475.78 220.18 474.25C225.57 472.9 225.81 465.5 220.41 464.1C216.21 462.65 211.47 463.63 207.36 462.28C207.38 462.12 207.39 461.97 207.41 461.81L207.39 461.78Z" fill="white"/>
<path d="M238.13 366.31C241.03 385.36 219.6 388.62 208.5 376.69C206.48 375.36 203.74 377.13 201.45 376.73C192.82 376.57 187.7 369.32 190.42 361.13C190.74 360.18 190.59 359.62 189.86 358.95C186.1 355.46 182.39 351.91 178.67 348.37C176.79 347.09 180.08 345.42 180.9 344.13C185.07 348.07 189.12 351.89 193.22 355.77C202.49 345.37 217.7 343.55 229.13 351.7C231.52 352.61 234.31 345.89 236.44 344.43C237.65 345.4 238.76 346.28 239.92 347.21C229.45 359.53 235.29 353.31 238.14 366.31H238.13ZM197.58 357.83C195.16 360.11 206.24 367.25 207.83 369.87C213.6 371.14 221.73 361.18 225.78 357.25C229.44 353.76 215.95 351.06 213.52 351.2C207.33 351.48 201.85 353.16 197.58 357.83ZM212.83 373.88C225.04 387.06 241.44 373.97 230.06 359.4C224.99 365.11 219.65 370.39 212.83 373.88ZM203.46 372.04C200.41 369.1 197.62 366.41 194.55 363.45C193.18 369.33 197.87 372.93 203.46 372.04Z" fill="white"/>
<path d="M239.84 470.33C240.56 472.2 237.77 472.6 236.6 473.68C207.4 428.2 220.86 458.29 175.97 452.55C160.91 451.85 149.73 434.21 168.15 427.93C185.27 422.79 203.88 428.84 216.6 440.93C219.76 443.34 234.44 432.22 237.9 429.87C238.85 431.03 239.77 432.15 240.74 433.33C234.81 438.33 228.41 442.23 221.38 445.41C228.28 453.2 234.11 461.67 239.84 470.33ZM166.14 433.92C159.21 438.12 165.49 444.97 171.04 446.51C184.62 451.03 199.72 447.99 212.92 443.54C200 432.73 182.13 426.36 166.14 433.92Z" fill="white"/>
<path d="M173.55 461.02C173.68 457.72 173.65 457.72 176.96 457.87C177.71 457.81 178.22 458.04 178.16 458.87C178.92 468.79 174.89 478.03 165.08 481.31C164.36 481.57 164.11 481.94 164.09 482.67C163.9 489.83 163.8 497.23 160.4 503.74C155.91 512.33 145.96 514.85 137.92 509.44C127.94 502.22 125.81 488.68 126.44 477.16C126.61 474.12 126.58 474.12 129.55 474.41C131.21 474.57 131.27 474.57 131.12 476.22C130.35 485.92 131.53 496.99 138.74 504.21C153.44 516.17 160.56 496.09 159.53 483.81C159.7 481.63 157.07 482.78 155.75 482.36C146.38 481.5 140.3 473.9 141.87 464.91C142.73 456.43 153.78 452.18 159.81 458.47C164.84 463.28 163.63 470.29 164.09 476.71C170.84 474.46 173.84 467.8 173.56 461.02H173.55ZM152.45 460.09C149.07 460.09 146.53 462.78 146.25 466.63C145.53 473.59 151.51 478.1 158.27 477.9C160.6 477.62 158.96 474.39 159.43 472.21C159.31 467.87 158.44 459.7 152.44 460.09H152.45Z" fill="white"/>
<path d="M175.89 414.13C172.27 424.34 158.12 424.09 150.68 418.19C150.19 418.78 149.77 419.28 149.33 419.82C148.02 418.99 146.82 418.23 145.56 417.44C149.09 413.81 142.85 410.82 139.67 410.24C131.56 408.77 128.55 419.72 134.58 424.12C138.73 427.82 144.49 428.97 148.81 432.4C163.81 449.92 134.56 462.52 126.6 436.96C133.17 433.37 131.3 438.78 135.01 442.68C138.46 448.15 147.89 449.07 148.37 441.13C147.41 431.68 133.48 432.83 129.21 425.05C119.29 409.71 139.76 398.35 150.38 411.37C155.78 401.1 178.69 398.26 175.89 414.13ZM170.37 414.78C174.56 410.09 168.41 406.44 163.97 407.5C159.63 408.3 156.55 411.18 153.53 414.43C158.4 418.31 165.78 419.18 170.38 414.78H170.37Z" fill="white"/>
<path d="M221.46 395.51C229.12 395.28 239 396.59 239.89 405.39C240.5 409.1 240.86 408.65 237.21 408.77C236.06 408.81 235.6 408.54 235.52 407.28C234.93 397.72 222.67 400.78 216.11 400.25C213.87 400.7 215.38 404.64 214.73 406.4C214.93 416.19 207.77 428.34 196.69 424.32C186.12 419.42 183.44 405.88 183.39 395.28C183.43 392.55 183.54 392.55 186.28 393C187.13 393.16 188.26 393.04 188.06 394.29C187.63 402.36 189.43 411.08 194.69 417.42C204.53 427.13 211.19 412.13 210.33 403.26C210.51 399.81 210.48 399.83 207.19 399.02C199.01 398.31 190.93 387.79 199.34 382.02C206.89 377.55 214.51 386.85 214.76 394.2C215.16 397.02 219.46 395.13 221.46 395.66V395.51ZM201.13 386.47C197.91 391.27 206.16 394.67 210.16 394.77C210.08 390.51 205.72 382.87 201.13 386.47Z" fill="white"/>
<path d="M234.28 418.71C234.2 423.41 241.67 423.41 241.56 418.7C241.7 413.87 234.13 413.94 234.28 418.71Z" fill="white"/>
<path d="M265.56 466.01C287.85 471.49 268.88 491 260.66 471.8C255.84 472.15 252.51 478.34 254.84 482.46C255.25 483.19 255.73 483.01 256.33 482.86C265.34 480.82 275.36 480.11 283.96 484.07C290.76 487.11 288.54 496.33 281.74 496.84C271.5 498.5 261.34 494.47 253.18 488.84C249.49 489.69 246.28 493.76 246.24 497.55C247.96 512.02 280.26 510.32 286.58 499.72C287.86 500.56 289.04 501.34 290.51 502.3C279.53 521.27 224 512.35 247.15 486.97C248.21 485.75 251.29 485.58 250.34 483.48C247.35 476.49 252.25 468.93 259.29 467.18C260.2 466.89 260.63 466.48 260.9 465.55C267.22 448.76 291.17 457.5 290.76 474.03C290.94 475.02 290.6 475.46 289.49 475.46C286.41 475.46 286.41 475.51 285.99 472.48C285.24 462.12 270.96 456.39 265.55 466L265.56 466.01ZM259.39 486.85C259.37 486.97 259.36 487.09 259.34 487.21C287.87 502.38 294.16 481.25 259.39 486.85ZM265.61 471.2C265.9 473.75 269.22 475.95 271.34 475C270.94 472.87 267.89 470.85 265.61 471.2Z" fill="white"/>
<path d="M325.05 394.24C326.57 395.67 330.15 393.34 329.96 396.27C330.4 399.68 330.89 399.3 327.23 399.32C324.06 399.46 320.23 397.73 320.39 394.24C320.87 385.65 332.14 389.94 337.4 387.25L337.44 386.65C326.12 383.19 302.96 393.65 299.81 376.75C299.86 369 309.18 366.8 315.37 366.08C327.17 364.26 340.13 366.16 351.12 360.91C356.99 356.74 350.86 350.27 345.55 349.78C326.72 346.22 307.43 350.78 288.9 354.23C287.68 354.483 286.94 353.98 286.68 352.72C286.13 350.08 286.14 350.11 288.76 349.55C309.16 346.57 336.06 337.81 354.75 349.27C370.8 374.53 322.09 366.78 309.69 372.01C299.59 375.02 305.81 382.58 313.56 381.91C321.63 382.21 329.87 380.24 337.84 381.77C343.23 383.12 343.47 390.52 338.07 391.92C333.87 393.37 329.13 392.39 325.02 393.74C325.04 393.9 325.05 394.05 325.07 394.21L325.05 394.24Z" fill="white"/>
<path d="M357.57 508.81C356.4 509.74 355.3 510.62 354.09 511.59C351.96 510.13 349.17 503.41 346.78 504.32C335.35 512.46 320.14 510.64 310.87 500.25C306.77 504.12 302.72 507.95 298.55 511.89C297.73 510.6 294.44 508.94 296.32 507.65C300.04 504.11 303.75 500.56 307.51 497.07C308.23 496.4 308.38 495.84 308.07 494.89C305.35 486.7 310.47 479.44 319.1 479.29C321.4 478.89 324.13 480.66 326.15 479.33C337.26 467.4 358.68 470.66 355.78 489.71C352.93 502.71 347.09 496.49 357.56 508.81H357.57ZM331.18 504.82C333.61 504.96 347.1 502.26 343.44 498.77C339.39 494.84 331.25 484.88 325.49 486.15C323.9 488.77 312.82 495.91 315.24 498.19C319.51 502.86 324.99 504.54 331.18 504.82ZM347.71 496.62C359.1 482.05 342.7 468.96 330.48 482.14C337.3 485.63 342.64 490.91 347.71 496.62ZM312.2 492.56C315.27 489.6 318.06 486.91 321.11 483.97C315.52 483.08 310.83 486.68 312.2 492.56Z" fill="white"/>
<path d="M339.04 410.61C346.08 413.79 352.48 417.69 358.4 422.69C357.43 423.87 356.52 424.98 355.56 426.15C352.1 423.8 337.42 412.68 334.26 415.09C321.54 427.18 302.93 433.23 285.81 428.09C267.39 421.81 278.57 404.18 293.63 403.47C338.53 397.73 325.06 427.82 354.26 382.34C355.43 383.42 358.22 383.83 357.5 385.69C351.77 394.35 345.93 402.82 339.04 410.61ZM330.59 412.48C317.39 408.03 302.29 404.99 288.71 409.51C283.15 411.06 276.88 417.9 283.81 422.1C299.81 429.66 317.67 423.29 330.59 412.48Z" fill="white"/>
<path d="M281.74 379.31C281.27 385.73 282.49 392.74 277.46 397.55C271.43 403.84 260.38 399.59 259.52 391.11C257.95 382.11 264.03 374.51 273.4 373.66C274.71 373.24 277.35 374.39 277.18 372.21C278.21 359.93 271.1 339.85 256.39 351.81C249.18 359.02 248 370.09 248.77 379.8C248.92 381.44 248.87 381.45 247.2 381.61C244.23 381.89 244.26 381.89 244.09 378.86C243.46 367.34 245.59 353.8 255.57 346.58C263.62 341.17 273.56 343.7 278.05 352.28C281.46 358.79 281.55 366.19 281.74 373.35C281.76 374.08 282.01 374.45 282.73 374.71C292.54 378 296.57 387.23 295.81 397.15C295.87 397.98 295.36 398.21 294.61 398.15C291.3 398.3 291.33 398.29 291.2 395C291.48 388.22 288.48 381.56 281.73 379.31H281.74ZM277.09 383.81C276.62 381.63 278.26 378.4 275.93 378.12C269.16 377.92 263.19 382.43 263.91 389.39C264.19 393.25 266.73 395.93 270.11 395.93C276.11 396.32 276.98 388.15 277.1 383.81H277.09Z" fill="white"/>
<path d="M268.03 444.65C257.42 457.67 236.95 446.31 246.86 430.97C251.13 423.2 265.06 424.34 266.02 414.89C265.54 406.96 256.12 407.88 252.66 413.34C248.94 417.24 250.81 422.64 244.25 419.06C252.2 393.5 281.45 406.1 266.46 423.62C262.14 427.04 256.39 428.19 252.23 431.9C246.19 436.3 249.21 447.25 257.32 445.78C260.5 445.2 266.74 442.21 263.21 438.58C264.47 437.79 265.67 437.03 266.98 436.2C267.42 436.74 267.84 437.24 268.33 437.83C275.77 431.93 289.91 431.68 293.54 441.89C296.34 457.76 273.43 454.93 268.03 444.65ZM271.18 441.59C274.2 444.83 277.28 447.72 281.62 448.52C286.06 449.57 292.22 445.93 288.02 441.24C283.42 436.85 276.04 437.72 271.17 441.59H271.18Z" fill="white"/>
<path d="M339.11 460.36C337.1 460.89 332.8 459 332.41 461.82C332.16 469.17 324.54 478.47 316.99 474C308.58 468.23 316.66 457.71 324.84 457C328.13 456.19 328.17 456.2 327.98 452.76C328.84 443.89 322.18 428.89 312.34 438.6C307.08 444.94 305.29 453.65 305.71 461.73C305.91 462.98 304.78 462.86 303.93 463.02C301.18 463.47 301.08 463.47 301.04 460.74C301.09 450.14 303.77 436.6 314.34 431.7C325.42 427.68 332.59 439.83 332.38 449.62C333.03 451.39 331.52 455.33 333.76 455.77C340.32 455.24 352.58 458.31 353.17 448.74C353.26 447.48 353.72 447.21 354.86 447.25C358.51 447.37 358.15 446.92 357.54 450.63C356.65 459.44 346.77 460.74 339.11 460.51V460.36ZM327.81 461.25C323.81 461.36 315.56 464.76 318.78 469.55C323.37 473.14 327.73 465.5 327.81 461.25Z" fill="white"/>
<path d="M351.94 437.31C351.86 432.61 359.33 432.61 359.22 437.32C359.36 442.15 351.79 442.08 351.94 437.31Z" fill="white"/>
<path d="M500.85 466.01C523.14 471.49 504.17 491 495.95 471.8C491.13 472.15 487.8 478.34 490.13 482.46C490.54 483.19 491.02 483.01 491.62 482.86C500.63 480.82 510.65 480.11 519.25 484.07C526.05 487.11 523.83 496.33 517.03 496.84C506.79 498.5 496.63 494.47 488.47 488.84C484.78 489.69 481.57 493.76 481.53 497.55C483.25 512.02 515.55 510.32 521.87 499.72C523.15 500.56 524.33 501.34 525.8 502.3C514.82 521.27 459.29 512.35 482.44 486.97C483.5 485.75 486.58 485.58 485.63 483.48C482.64 476.49 487.54 468.93 494.58 467.18C495.49 466.89 495.92 466.48 496.19 465.55C502.51 448.76 526.46 457.5 526.05 474.03C526.23 475.02 525.89 475.46 524.78 475.46C521.7 475.46 521.7 475.51 521.28 472.48C520.53 462.12 506.25 456.39 500.84 466L500.85 466.01ZM494.68 486.85C494.66 486.97 494.65 487.09 494.63 487.21C523.16 502.38 529.45 481.25 494.68 486.85ZM500.9 471.2C501.19 473.75 504.51 475.95 506.63 475C506.23 472.87 503.18 470.85 500.9 471.2Z" fill="white"/>
<path d="M560.33 394.24C561.85 395.67 565.43 393.34 565.24 396.27C565.68 399.68 566.17 399.3 562.51 399.32C559.34 399.46 555.51 397.73 555.67 394.24C556.15 385.65 567.42 389.94 572.68 387.25L572.72 386.65C561.4 383.19 538.24 393.65 535.09 376.75C535.14 369 544.46 366.8 550.65 366.08C562.45 364.26 575.41 366.16 586.4 360.91C592.27 356.74 586.14 350.27 580.83 349.78C562 346.22 542.71 350.78 524.18 354.23C522.96 354.483 522.22 353.98 521.96 352.72C521.41 350.08 521.42 350.11 524.04 349.55C544.44 346.57 571.34 337.81 590.03 349.27C606.08 374.53 557.37 366.78 544.97 372.01C534.87 375.02 541.09 382.58 548.84 381.91C556.91 382.21 565.15 380.24 573.12 381.77C578.51 383.12 578.75 390.52 573.35 391.92C569.15 393.37 564.41 392.39 560.3 393.74C560.32 393.9 560.33 394.05 560.35 394.21L560.33 394.24Z" fill="white"/>
<path d="M592.86 508.81C591.69 509.74 590.59 510.62 589.38 511.59C587.25 510.13 584.46 503.41 582.07 504.32C570.64 512.46 555.43 510.64 546.16 500.25C542.06 504.12 538.01 507.95 533.84 511.89C533.02 510.6 529.73 508.94 531.61 507.65C535.33 504.11 539.04 500.56 542.8 497.07C543.52 496.4 543.67 495.84 543.36 494.89C540.64 486.7 545.76 479.44 554.39 479.29C556.69 478.89 559.42 480.66 561.44 479.33C572.55 467.4 593.97 470.66 591.07 489.71C588.22 502.71 582.38 496.49 592.85 508.81H592.86ZM566.47 504.82C568.9 504.96 582.39 502.26 578.73 498.77C574.68 494.84 566.54 484.88 560.78 486.15C559.19 488.77 548.11 495.91 550.53 498.19C554.8 502.86 560.28 504.54 566.47 504.82ZM583 496.62C594.39 482.05 577.99 468.96 565.77 482.14C572.59 485.63 577.93 490.91 583 496.62ZM547.49 492.56C550.56 489.6 553.35 486.91 556.4 483.97C550.81 483.08 546.12 486.68 547.49 492.56Z" fill="white"/>
<path d="M574.32 410.61C581.36 413.79 587.76 417.69 593.68 422.69C592.71 423.87 591.8 424.98 590.84 426.15C587.38 423.8 572.7 412.68 569.54 415.09C556.82 427.18 538.21 433.23 521.09 428.09C502.67 421.81 513.85 404.18 528.91 403.47C573.81 397.73 560.34 427.82 589.54 382.34C590.71 383.42 593.5 383.83 592.78 385.69C587.05 394.35 581.21 402.82 574.32 410.61ZM565.87 412.48C552.67 408.03 537.57 404.99 523.99 409.51C518.43 411.06 512.16 417.9 519.09 422.1C535.09 429.66 552.95 423.29 565.87 412.48Z" fill="white"/>
<path d="M517.02 379.31C516.55 385.73 517.77 392.74 512.74 397.55C506.71 403.84 495.66 399.59 494.8 391.11C493.23 382.11 499.31 374.51 508.68 373.66C509.99 373.24 512.63 374.39 512.46 372.21C513.49 359.93 506.38 339.85 491.67 351.81C484.46 359.02 483.28 370.09 484.05 379.8C484.2 381.44 484.15 381.45 482.48 381.61C479.51 381.89 479.54 381.89 479.37 378.86C478.74 367.34 480.87 353.8 490.85 346.58C498.9 341.17 508.84 343.7 513.33 352.28C516.74 358.79 516.83 366.19 517.02 373.35C517.04 374.08 517.29 374.45 518.01 374.71C527.82 378 531.85 387.23 531.09 397.15C531.15 397.98 530.64 398.21 529.89 398.15C526.58 398.3 526.61 398.29 526.48 395C526.76 388.22 523.76 381.56 517.01 379.31H517.02ZM512.37 383.81C511.9 381.63 513.54 378.4 511.21 378.12C504.44 377.92 498.47 382.43 499.19 389.39C499.47 393.25 502.01 395.93 505.39 395.93C511.39 396.32 512.26 388.15 512.38 383.81H512.37Z" fill="white"/>
<path d="M503.32 444.65C492.71 457.67 472.24 446.31 482.15 430.97C486.42 423.2 500.35 424.34 501.31 414.89C500.83 406.96 491.41 407.88 487.95 413.34C484.23 417.24 486.1 422.64 479.54 419.06C487.49 393.5 516.74 406.1 501.75 423.62C497.43 427.04 491.68 428.19 487.52 431.9C481.48 436.3 484.5 447.25 492.61 445.78C495.79 445.2 502.03 442.21 498.5 438.58C499.76 437.79 500.96 437.03 502.27 436.2C502.71 436.74 503.13 437.24 503.62 437.83C511.06 431.93 525.2 431.68 528.83 441.89C531.63 457.76 508.72 454.93 503.32 444.65ZM506.47 441.59C509.49 444.83 512.57 447.72 516.91 448.52C521.35 449.57 527.51 445.93 523.31 441.24C518.71 436.85 511.33 437.72 506.46 441.59H506.47Z" fill="white"/>
<path d="M574.4 460.36C572.39 460.89 568.09 459 567.7 461.82C567.45 469.17 559.83 478.47 552.28 474C543.87 468.23 551.95 457.71 560.13 457C563.42 456.19 563.46 456.2 563.27 452.76C564.13 443.89 557.47 428.89 547.63 438.6C542.37 444.94 540.58 453.65 541 461.73C541.2 462.98 540.07 462.86 539.22 463.02C536.47 463.47 536.37 463.47 536.33 460.74C536.38 450.14 539.06 436.6 549.63 431.7C560.71 427.68 567.88 439.83 567.67 449.62C568.32 451.39 566.81 455.33 569.05 455.77C575.61 455.24 587.87 458.31 588.46 448.74C588.55 447.48 589.01 447.21 590.15 447.25C593.8 447.37 593.44 446.92 592.83 450.63C591.94 459.44 582.06 460.74 574.4 460.51V460.36ZM563.1 461.25C559.1 461.36 550.85 464.76 554.07 469.55C558.66 473.14 563.02 465.5 563.1 461.25Z" fill="white"/>
<path d="M587.23 437.31C587.15 432.61 594.62 432.61 594.51 437.32C594.65 442.15 587.08 442.08 587.23 437.31Z" fill="white"/>
<path d="M403.64 383.53C404.06 380.5 404.06 380.54 407.14 380.55C408.25 380.55 408.59 380.99 408.41 381.98C408.82 398.51 384.87 407.26 378.55 390.46C378.28 389.53 377.84 389.12 376.94 388.83C369.9 387.08 365 379.53 367.99 372.53C368.94 370.43 365.86 370.26 364.8 369.04C341.65 343.67 397.18 334.75 408.16 353.71C406.69 354.68 405.51 355.45 404.23 356.29C397.91 345.69 365.6 343.99 363.89 358.46C363.93 362.24 367.15 366.31 370.83 367.17C378.98 361.54 389.14 357.51 399.39 359.17C406.19 359.69 408.41 368.9 401.61 371.94C393.01 375.89 382.99 375.19 373.98 373.15C373.39 373 372.9 372.82 372.49 373.55C370.15 377.67 373.48 383.86 378.31 384.21C386.53 365 405.5 384.52 383.21 390C388.61 399.61 402.9 393.89 403.65 383.52L403.64 383.53ZM376.99 368.81C377.01 368.93 377.02 369.05 377.04 369.17C411.81 374.77 405.52 353.64 376.99 368.81ZM388.99 381.02C386.87 380.07 383.55 382.27 383.26 384.82C385.54 385.17 388.59 383.15 388.99 381.02Z" fill="white"/>
<path d="M442.69 461.78C444.21 460.35 447.79 462.68 447.6 459.75C448.04 456.34 448.53 456.72 444.87 456.7C441.7 456.56 437.87 458.29 438.03 461.78C438.51 470.37 449.78 466.08 455.04 468.77L455.08 469.37C443.76 472.83 420.6 462.37 417.45 479.27C417.5 487.02 426.82 489.22 433.01 489.94C444.81 491.76 457.77 489.86 468.76 495.11C474.63 499.28 468.5 505.75 463.19 506.24C444.36 509.8 425.07 505.24 406.54 501.79C405.32 501.537 404.58 502.04 404.32 503.3C403.77 505.94 403.78 505.91 406.4 506.47C426.8 509.45 453.7 518.21 472.39 506.75C488.44 481.49 439.73 489.24 427.33 484.01C417.23 481 423.45 473.44 431.2 474.11C439.27 473.81 447.51 475.78 455.48 474.25C460.87 472.9 461.11 465.5 455.71 464.1C451.51 462.65 446.77 463.63 442.66 462.28C442.68 462.12 442.69 461.97 442.71 461.81L442.69 461.78Z" fill="white"/>
<path d="M473.43 366.31C476.33 385.36 454.9 388.62 443.8 376.69C441.78 375.36 439.04 377.13 436.75 376.73C428.12 376.57 423 369.32 425.72 361.13C426.04 360.18 425.89 359.62 425.16 358.95C421.4 355.46 417.69 351.91 413.97 348.37C412.09 347.09 415.38 345.42 416.2 344.13C420.37 348.07 424.42 351.89 428.52 355.77C437.79 345.37 453 343.55 464.43 351.7C466.82 352.61 469.61 345.89 471.74 344.43C472.95 345.4 474.06 346.28 475.22 347.21C464.75 359.53 470.59 353.31 473.44 366.31H473.43ZM432.88 357.83C430.46 360.11 441.54 367.25 443.13 369.87C448.9 371.14 457.03 361.18 461.08 357.25C464.74 353.76 451.25 351.06 448.82 351.2C442.63 351.48 437.15 353.16 432.88 357.83ZM448.13 373.88C460.34 387.06 476.74 373.97 465.36 359.4C460.29 365.11 454.95 370.39 448.13 373.88ZM438.76 372.04C435.71 369.1 432.92 366.41 429.85 363.45C428.48 369.33 433.17 372.93 438.76 372.04Z" fill="white"/>
<path d="M475.14 470.33C475.86 472.2 473.07 472.6 471.9 473.68C442.7 428.2 456.16 458.29 411.27 452.55C396.21 451.85 385.03 434.21 403.45 427.93C420.57 422.79 439.18 428.84 451.9 440.93C455.06 443.34 469.74 432.22 473.2 429.87C474.15 431.03 475.07 432.15 476.04 433.33C470.11 438.33 463.71 442.23 456.68 445.41C463.58 453.2 469.41 461.67 475.14 470.33ZM401.44 433.92C394.51 438.12 400.79 444.97 406.34 446.51C419.92 451.03 435.02 447.99 448.22 443.54C435.3 432.73 417.43 426.36 401.44 433.92Z" fill="white"/>
<path d="M408.85 461.02C408.98 457.72 408.95 457.72 412.26 457.87C413.01 457.81 413.52 458.04 413.46 458.87C414.22 468.79 410.19 478.03 400.38 481.31C399.66 481.57 399.41 481.94 399.39 482.67C399.2 489.83 399.1 497.23 395.7 503.74C391.21 512.33 381.26 514.85 373.22 509.44C363.24 502.22 361.11 488.68 361.74 477.16C361.91 474.12 361.88 474.12 364.85 474.41C366.51 474.57 366.57 474.57 366.42 476.22C365.65 485.92 366.83 496.99 374.04 504.21C388.74 516.17 395.86 496.09 394.83 483.81C395 481.63 392.37 482.78 391.05 482.36C381.68 481.5 375.6 473.9 377.17 464.91C378.03 456.43 389.08 452.18 395.11 458.47C400.14 463.28 398.93 470.29 399.39 476.71C406.14 474.46 409.14 467.8 408.86 461.02H408.85ZM387.75 460.09C384.37 460.09 381.83 462.78 381.55 466.63C380.83 473.59 386.81 478.1 393.57 477.9C395.9 477.62 394.26 474.39 394.73 472.21C394.61 467.87 393.74 459.7 387.74 460.09H387.75Z" fill="white"/>
<path d="M411.19 414.13C407.57 424.34 393.42 424.09 385.98 418.19C385.49 418.78 385.07 419.28 384.63 419.82C383.32 418.99 382.12 418.23 380.86 417.44C384.39 413.81 378.15 410.82 374.97 410.24C366.86 408.77 363.85 419.72 369.88 424.12C374.03 427.82 379.79 428.97 384.11 432.4C399.11 449.92 369.86 462.52 361.9 436.96C368.47 433.37 366.6 438.78 370.31 442.68C373.76 448.15 383.19 449.07 383.67 441.13C382.71 431.68 368.78 432.83 364.51 425.05C354.59 409.71 375.06 398.35 385.68 411.37C391.08 401.1 413.99 398.26 411.19 414.13ZM405.67 414.78C409.86 410.09 403.71 406.44 399.27 407.5C394.93 408.3 391.85 411.18 388.83 414.43C393.7 418.31 401.08 419.18 405.68 414.78H405.67Z" fill="white"/>
<path d="M456.76 395.51C464.42 395.28 474.3 396.59 475.19 405.39C475.8 409.1 476.16 408.65 472.51 408.77C471.36 408.81 470.9 408.54 470.82 407.28C470.23 397.72 457.97 400.78 451.41 400.25C449.17 400.7 450.68 404.64 450.03 406.4C450.23 416.19 443.07 428.34 431.99 424.32C421.42 419.42 418.74 405.88 418.69 395.28C418.73 392.55 418.84 392.55 421.58 393C422.43 393.16 423.56 393.04 423.36 394.29C422.93 402.36 424.73 411.08 429.99 417.42C439.83 427.13 446.49 412.13 445.63 403.26C445.81 399.81 445.78 399.83 442.49 399.02C434.31 398.31 426.23 387.79 434.64 382.02C442.19 377.55 449.81 386.85 450.06 394.2C450.46 397.02 454.76 395.13 456.76 395.66V395.51ZM436.43 386.47C433.21 391.27 441.46 394.67 445.46 394.77C445.38 390.51 441.02 382.87 436.43 386.47Z" fill="white"/>
<path d="M469.58 418.71C469.5 423.41 476.97 423.41 476.86 418.7C477 413.87 469.43 413.94 469.58 418.71Z" fill="white"/>
</svg>
