<svg width="39.75" height="29.75" viewBox="0 0 159 119" fill="none" xmlns="http://www.w3.org/2000/svg">
<path d="M101.94 39.2502C122.47 38.6402 148.91 42.1302 151.31 65.7202C152.96 75.6402 153.91 74.4402 144.15 74.7602C141.08 74.8602 139.85 74.1502 139.62 70.7702C138.05 45.1602 105.21 53.3702 87.64 51.9502C81.64 53.1502 85.68 63.7002 83.94 68.4302C84.49 94.6502 65.29 127.19 35.62 116.42C7.3 103.28 0.14 67.0302 0 38.6402C0.11 31.3202 0.39 31.3202 7.75 32.5302C10.03 32.9502 13.06 32.6502 12.51 35.9902C11.36 57.6102 16.18 80.9602 30.25 97.9302C56.6 123.94 74.43 83.7802 72.13 60.0202C72.62 50.7802 72.53 50.8202 63.71 48.6502C41.8 46.7502 20.16 18.5702 42.68 3.12023C62.9 -8.83977 83.32 16.0702 83.97 35.7502C85.03 43.2902 96.55 38.2502 101.92 39.6602V39.2502H101.94ZM47.51 15.0302C38.88 27.8702 60.97 36.9802 71.69 37.2702C71.49 25.8702 59.8 5.41023 47.51 15.0302Z" fill="#EB620C"/>
<path d="M138.619 96.7309C138.399 109.321 158.399 109.331 158.119 96.7009C158.499 83.7809 138.229 83.9609 138.619 96.7309Z" fill="#EB620C"/>
</svg>
