<svg width="125" height="94" viewBox="0 0 125 94" fill="none" xmlns="http://www.w3.org/2000/svg">
<path d="M118.1 47.7049C115.942 51.4433 111.925 56.6234 107.183 56.6234C106.745 56.6234 106.169 56.3351 105.602 55.3309C104.588 53.3125 104.021 48.8582 106.457 42.9622C107.034 41.3813 109.34 35.4953 115.654 26.1492L109.052 21.844C102.579 31.4685 99.855 37.792 98.99 40.0888C97.8764 43.0119 97.2003 45.945 96.9518 48.6991C94.6749 52.2984 90.8271 56.6234 86.4921 56.6234C86.0546 56.6234 85.4779 56.3351 84.9112 55.3309C83.897 53.3125 83.3303 48.8582 85.7663 42.9622C90.5089 28.5951 98.7017 16.5247 108.764 5.31932L102.868 0C86.0049 18.2249 80.5563 32.3136 78.2993 40.0888C76.798 46.3626 76.0622 47.4464 76.0622 47.4464C73.9047 51.1848 70.1066 56.6234 65.3639 56.6234C64.9364 56.6234 64.3597 56.3351 63.783 55.3309C62.7788 53.3125 62.2022 48.8582 64.648 42.9622C65.2247 41.3813 67.5215 35.4953 73.845 26.1492L66.2985 21.4065C61.4067 26.875 57.9566 35.0678 57.6782 36.072C57.2408 37.0762 56.8132 38.0804 56.2366 39.0846C53.9398 45.1198 49.048 56.6234 41.4319 56.6234C41.0044 56.6234 40.4277 56.3351 39.8511 55.3309C38.7077 53.3125 38.2702 48.8582 40.7161 42.9622C41.2927 41.2421 43.5895 35.4953 49.913 26.1492L43.3012 21.844C38.7574 28.605 36.5899 32.6219 35.0885 35.8731C35.188 32.5622 34.0445 30.693 32.7421 28.3763C31.1612 25.5029 28.5761 23.6337 25.5535 23.057C24.9868 22.9178 24.261 22.9178 23.5451 22.9178C16.3566 22.9178 8.17374 30.0964 3.99783 40.5859C1.27354 47.7745 1.1244 54.963 3.70949 59.7057C5.57871 62.8674 9.02881 65.1642 12.7673 65.1642C19.4388 65.1642 26.8262 60.9385 31.1313 51.8609C31.012 55.3209 31.5986 56.7328 32.9509 59.2085C34.8201 62.3703 38.2702 64.667 42.0086 64.667C42.5853 64.667 43.3012 64.5278 44.017 64.3787C37.9222 74.5898 30.7635 82.4843 21.1489 85.0396C18.1164 85.8449 14.8552 85.4969 12.1707 83.8862C11.2063 83.3195 10.4009 82.6633 9.83417 81.9275C8.4422 80.1179 8.13397 77.8908 9.06858 75.952L1.00509 73.178C-0.854191 77.4831 -0.0786634 82.4843 2.87431 86.3818C4.80318 88.8874 7.54736 91.731 13.8311 92.7451C15.8196 93.0732 16.5753 93.103 18.1065 93.0533C28.6059 92.7053 37.4847 86.9983 45.4587 76.4491C49.0977 71.6368 52.9257 65.025 56.3956 58.1844C56.5448 58.5324 56.7138 58.8804 56.8928 59.2085C58.7521 62.3703 62.2022 64.667 65.9406 64.667C69.868 64.667 74.1135 62.5294 77.8121 58.8208C77.8718 58.95 77.9414 59.0793 78.011 59.2085C79.8802 62.3703 83.3303 64.667 87.0687 64.667C90.8072 64.667 95.0129 62.6387 98.652 59.1091C98.6619 59.1389 98.6818 59.1787 98.7017 59.2085C100.571 62.3703 104.021 64.667 107.759 64.667C113.785 64.667 120.546 59.6361 125 51.5924L118.1 47.7049ZM24.9868 44.4735C23.1176 49.2162 18.0866 57.1206 12.1906 57.1206C11.763 57.1206 11.1864 56.8322 10.6097 55.828C9.60549 53.8097 9.02881 49.3554 11.4747 43.4594C13.3439 38.7267 18.2258 30.8222 24.1218 30.8222C24.5493 30.9614 25.126 31.1006 25.7027 32.1148C26.856 34.1232 27.2835 38.5775 24.9868 44.4735Z" fill="white"/>
<path d="M76.291 11.782C73.4176 11.782 71.1208 14.0787 71.1208 17.1013C71.1208 20.1239 73.4176 22.2715 76.291 22.2715C79.1644 22.2715 81.6103 19.9747 81.6103 17.1013C81.6103 14.0787 79.3036 11.782 76.291 11.782Z" fill="white"/>
<path d="M118.1 11.782C115.226 11.782 112.93 14.0787 112.93 17.1013C112.93 20.1239 115.226 22.2715 118.1 22.2715C121.122 22.2715 123.419 19.9747 123.419 17.1013C123.419 14.0787 121.122 11.782 118.1 11.782Z" fill="white"/>
</svg>
